<svg width="1200" height="400" viewBox="0 0 1200 400" xmlns="http://www.w3.org/2000/svg">
        <defs>
            <linearGradient id="bg" x1="0%" y1="0%" x2="100%" y2="0%">
                <stop offset="0%" style="stop-color:#6d28d9;stop-opacity:1" />
                <stop offset="100%" style="stop-color:#8b5cf6;stop-opacity:1" />
            </linearGradient>
            <pattern id="grid" width="40" height="40" patternUnits="userSpaceOnUse">
                <path d="M 40 0 L 0 0 0 40" fill="none" stroke="white" stroke-width="1" stroke-opacity="0.1"/>
            </pattern>
        </defs>
        <rect width="1200" height="400" fill="url(#bg)" />
        <rect width="1200" height="400" fill="url(#grid)" />
        <circle cx="36" cy="166" r="136" fill="white" fill-opacity="0.05" /><circle cx="812" cy="174" r="122" fill="white" fill-opacity="0.09" /><circle cx="354" cy="266" r="193" fill="white" fill-opacity="0.14" /><circle cx="266" cy="204" r="143" fill="white" fill-opacity="0.12" /><circle cx="706" cy="304" r="154" fill="white" fill-opacity="0.12" /><circle cx="650" cy="400" r="90" fill="white" fill-opacity="0.12" /><circle cx="76" cy="390" r="53" fill="white" fill-opacity="0.12" /><circle cx="445" cy="387" r="125" fill="white" fill-opacity="0.07" /><circle cx="381" cy="351" r="71" fill="white" fill-opacity="0.14" /><circle cx="680" cy="147" r="117" fill="white" fill-opacity="0.15" />
        
        <!-- Big decorative icon on right -->
        <g transform="translate(850, -50) scale(20)" stroke="white" stroke-width="1.5" fill="none" stroke-opacity="0.2">
             <path d="M12 7.5a4.5 4.5 0 1 1 4.5 4.5M12 7.5a4.5 4.5 0 1 0 4.5 4.5M12 7.5a4.5 4.5 0 1 1-4.5 4.5M12 7.5A4.5 4.5 0 1 0 7.5 12M12 7.5V12m0 0a4.5 4.5 0 0 1-4.5-4.5M12 12a4.5 4.5 0 0 0-4.5 4.5M12 12a4.5 4.5 0 0 1 4.5 4.5M12 12a4.5 4.5 0 0 0 4.5-4.5" />
        </g>
        
        <!-- Smaller focused icon on left-center -->
        <g transform="translate(100, 100) scale(8)" stroke="white" stroke-width="2" fill="none" filter="drop-shadow(3px 3px 2px rgba(0,0,0,0.3))">
             <path d="M12 7.5a4.5 4.5 0 1 1 4.5 4.5M12 7.5a4.5 4.5 0 1 0 4.5 4.5M12 7.5a4.5 4.5 0 1 1-4.5 4.5M12 7.5A4.5 4.5 0 1 0 7.5 12M12 7.5V12m0 0a4.5 4.5 0 0 1-4.5-4.5M12 12a4.5 4.5 0 0 0-4.5 4.5M12 12a4.5 4.5 0 0 1 4.5 4.5M12 12a4.5 4.5 0 0 0 4.5-4.5" />
        </g>
    </svg>