<svg width="512" height="512" viewBox="0 0 512 512" xmlns="http://www.w3.org/2000/svg">
        <defs>
            <linearGradient id="g" x1="0%" y1="0%" x2="100%" y2="100%">
                <stop offset="0%" style="stop-color:#8b5cf6;stop-opacity:1" />
                <stop offset="100%" style="stop-color:#6d28d9;stop-opacity:1" />
            </linearGradient>
            <filter id="shadow" x="-20%" y="-20%" width="140%" height="140%">
                <feDropShadow dx="2" dy="2" stdDeviation="2" flood-color="#000000" flood-opacity="0.2"/>
            </filter>
        </defs>
        <circle cx="256" cy="256" r="256" fill="url(#g)" />
        <g transform="translate(106, 106) scale(12.5)" stroke="#FFFFFF" stroke-width="2" fill="none" stroke-linecap="round" stroke-linejoin="round" filter="url(#shadow)">
            <path d="M12 7.5a4.5 4.5 0 1 1 4.5 4.5M12 7.5a4.5 4.5 0 1 0 4.5 4.5M12 7.5a4.5 4.5 0 1 1-4.5 4.5M12 7.5A4.5 4.5 0 1 0 7.5 12M12 7.5V12m0 0a4.5 4.5 0 0 1-4.5-4.5M12 12a4.5 4.5 0 0 0-4.5 4.5M12 12a4.5 4.5 0 0 1 4.5 4.5M12 12a4.5 4.5 0 0 0 4.5-4.5" />
        </g>
    </svg>