<svg width="1200" height="400" viewBox="0 0 1200 400" xmlns="http://www.w3.org/2000/svg">
        <defs>
            <linearGradient id="bg" x1="0%" y1="0%" x2="100%" y2="0%">
                <stop offset="0%" style="stop-color:#00B377;stop-opacity:1" />
                <stop offset="100%" style="stop-color:#00E599;stop-opacity:1" />
            </linearGradient>
            <pattern id="grid" width="40" height="40" patternUnits="userSpaceOnUse">
                <path d="M 40 0 L 0 0 0 40" fill="none" stroke="white" stroke-width="1" stroke-opacity="0.1"/>
            </pattern>
        </defs>
        <rect width="1200" height="400" fill="url(#bg)" />
        <rect width="1200" height="400" fill="url(#grid)" />
        <circle cx="26" cy="280" r="199" fill="white" fill-opacity="0.08" /><circle cx="116" cy="88" r="131" fill="white" fill-opacity="0.13" /><circle cx="485" cy="31" r="64" fill="white" fill-opacity="0.06" /><circle cx="327" cy="239" r="69" fill="white" fill-opacity="0.08" /><circle cx="987" cy="183" r="101" fill="white" fill-opacity="0.13" /><circle cx="1066" cy="44" r="174" fill="white" fill-opacity="0.08" /><circle cx="773" cy="89" r="97" fill="white" fill-opacity="0.1" /><circle cx="764" cy="395" r="96" fill="white" fill-opacity="0.08" /><circle cx="157" cy="328" r="118" fill="white" fill-opacity="0.14" /><circle cx="943" cy="53" r="149" fill="white" fill-opacity="0.12" />
        
        <!-- Big decorative icon on right -->
        <g transform="translate(850, -50) scale(20)" stroke="white" stroke-width="1.5" fill="none" stroke-opacity="0.2">
             <path d="M12 2C6.48 2 2 6.48 2 12s4.48 10 10 10 10-4.48 10-10S17.52 2 12 2zm1.41 16.09V20h-2.67v-1.93c-1.71-.36-3.16-1.46-3.27-3.4h1.96c.1 1.05.69 1.64 1.83 1.64 1.22 0 2.13-.56 2.13-1.28 0-.48-.24-.9-1.16-1.1l-2.02-.45c-1.96-.44-2.65-1.57-2.65-2.73 0-1.41 1.08-2.6 2.87-2.95V6h2.67v1.9c1.7.35 2.92 1.35 3.01 3.19h-1.95c-.15-1.01-.81-1.49-1.89-1.49-1.11 0-1.81.44-1.81 1.05 0 .47.28.8 1.15 1l2.05.47c2.08.52 2.65 1.58 2.65 2.8 0 1.6-1.13 2.63-3.21 2.97z" />
        </g>
        
        <!-- Smaller focused icon on left-center -->
        <g transform="translate(100, 100) scale(8)" stroke="white" stroke-width="2" fill="none" filter="drop-shadow(3px 3px 2px rgba(0,0,0,0.3))">
             <path d="M12 2C6.48 2 2 6.48 2 12s4.48 10 10 10 10-4.48 10-10S17.52 2 12 2zm1.41 16.09V20h-2.67v-1.93c-1.71-.36-3.16-1.46-3.27-3.4h1.96c.1 1.05.69 1.64 1.83 1.64 1.22 0 2.13-.56 2.13-1.28 0-.48-.24-.9-1.16-1.1l-2.02-.45c-1.96-.44-2.65-1.57-2.65-2.73 0-1.41 1.08-2.6 2.87-2.95V6h2.67v1.9c1.7.35 2.92 1.35 3.01 3.19h-1.95c-.15-1.01-.81-1.49-1.89-1.49-1.11 0-1.81.44-1.81 1.05 0 .47.28.8 1.15 1l2.05.47c2.08.52 2.65 1.58 2.65 2.8 0 1.6-1.13 2.63-3.21 2.97z" />
        </g>
    </svg>