<svg width="512" height="512" viewBox="0 0 512 512" xmlns="http://www.w3.org/2000/svg">
        <defs>
            <linearGradient id="g" x1="0%" y1="0%" x2="100%" y2="100%">
                <stop offset="0%" style="stop-color:#9f9df3;stop-opacity:1" />
                <stop offset="100%" style="stop-color:#7b79d1;stop-opacity:1" />
            </linearGradient>
            <filter id="shadow" x="-20%" y="-20%" width="140%" height="140%">
                <feDropShadow dx="2" dy="2" stdDeviation="2" flood-color="#000000" flood-opacity="0.2"/>
            </filter>
        </defs>
        <circle cx="256" cy="256" r="256" fill="url(#g)" />
        <g transform="translate(106, 106) scale(12.5)" stroke="#FFFFFF" stroke-width="2" fill="none" stroke-linecap="round" stroke-linejoin="round" filter="url(#shadow)">
            <path d="M12 2C6.48 2 2 6.48 2 12s4.48 10 10 10 10-4.48 10-10S17.52 2 12 2zm1.41 16.09V20h-2.67v-1.93c-1.71-.36-3.16-1.46-3.27-3.4h1.96c.1 1.05.69 1.64 1.83 1.64 1.22 0 2.13-.56 2.13-1.28 0-.48-.24-.9-1.16-1.1l-2.02-.45c-1.96-.44-2.65-1.57-2.65-2.73 0-1.41 1.08-2.6 2.87-2.95V6h2.67v1.9c1.7.35 2.92 1.35 3.01 3.19h-1.95c-.15-1.01-.81-1.49-1.89-1.49-1.11 0-1.81.44-1.81 1.05 0 .47.28.8 1.15 1l2.05.47c2.08.52 2.65 1.58 2.65 2.8 0 1.6-1.13 2.63-3.21 2.97z" />
        </g>
    </svg>