<svg width="1200" height="400" viewBox="0 0 1200 400" xmlns="http://www.w3.org/2000/svg">
        <defs>
            <linearGradient id="bg" x1="0%" y1="0%" x2="100%" y2="0%">
                <stop offset="0%" style="stop-color:#6d28d9;stop-opacity:1" />
                <stop offset="100%" style="stop-color:#8b5cf6;stop-opacity:1" />
            </linearGradient>
            <pattern id="grid" width="40" height="40" patternUnits="userSpaceOnUse">
                <path d="M 40 0 L 0 0 0 40" fill="none" stroke="white" stroke-width="1" stroke-opacity="0.1"/>
            </pattern>
        </defs>
        <rect width="1200" height="400" fill="url(#bg)" />
        <rect width="1200" height="400" fill="url(#grid)" />
        <circle cx="607" cy="63" r="192" fill="white" fill-opacity="0.12" /><circle cx="645" cy="342" r="105" fill="white" fill-opacity="0.09" /><circle cx="8" cy="368" r="157" fill="white" fill-opacity="0.06" /><circle cx="799" cy="288" r="74" fill="white" fill-opacity="0.15" /><circle cx="161" cy="147" r="123" fill="white" fill-opacity="0.11" /><circle cx="640" cy="124" r="52" fill="white" fill-opacity="0.08" /><circle cx="745" cy="96" r="68" fill="white" fill-opacity="0.15" /><circle cx="272" cy="126" r="71" fill="white" fill-opacity="0.13" /><circle cx="297" cy="5" r="198" fill="white" fill-opacity="0.09" /><circle cx="737" cy="238" r="121" fill="white" fill-opacity="0.13" />
        
        <!-- Big decorative icon on right -->
        <g transform="translate(850, -50) scale(20)" stroke="white" stroke-width="1.5" fill="none" stroke-opacity="0.2">
             <path d="M19 21l-7-5-7 5V5a2 2 0 0 1 2-2h10a2 2 0 0 1 2 2z" />
        </g>
        
        <!-- Smaller focused icon on left-center -->
        <g transform="translate(100, 100) scale(8)" stroke="white" stroke-width="2" fill="none" filter="drop-shadow(3px 3px 2px rgba(0,0,0,0.3))">
             <path d="M19 21l-7-5-7 5V5a2 2 0 0 1 2-2h10a2 2 0 0 1 2 2z" />
        </g>
    </svg>