<svg xmlns="http://www.w3.org/2000/svg" viewBox="0 0 64 64" fill="none">
  <defs>
    <linearGradient id="burn-bg" x1="0%" y1="100%" x2="100%" y2="0%">
      <stop offset="0%" style="stop-color:#EF4444"/>
      <stop offset="100%" style="stop-color:#F97316"/>
    </linearGradient>
  </defs>
  <rect width="64" height="64" rx="12" fill="url(#burn-bg)"/>
  <path d="M32 8c0 12-12 16-12 28 0 8 5.4 14 12 14s12-6 12-14c0-12-12-16-12-28z" fill="#FFE066"/>
  <path d="M32 20c0 8-6 10-6 18 0 4 2.7 7 6 7s6-3 6-7c0-8-6-10-6-18z" fill="#fff" opacity="0.8"/>
  <circle cx="50" cy="14" r="8" fill="#fff" opacity="0.9"/>
  <text x="50" y="18" font-size="10" fill="#EF4444" text-anchor="middle" font-weight="bold">1</text>
</svg>
