<svg width="1200" height="400" viewBox="0 0 1200 400" xmlns="http://www.w3.org/2000/svg">
        <defs>
            <linearGradient id="bg" x1="0%" y1="0%" x2="100%" y2="0%">
                <stop offset="0%" style="stop-color:#b45309;stop-opacity:1" />
                <stop offset="100%" style="stop-color:#f59e0b;stop-opacity:1" />
            </linearGradient>
            <pattern id="grid" width="40" height="40" patternUnits="userSpaceOnUse">
                <path d="M 40 0 L 0 0 0 40" fill="none" stroke="white" stroke-width="1" stroke-opacity="0.1"/>
            </pattern>
        </defs>
        <rect width="1200" height="400" fill="url(#bg)" />
        <rect width="1200" height="400" fill="url(#grid)" />
        <circle cx="883" cy="42" r="109" fill="white" fill-opacity="0.07" /><circle cx="894" cy="185" r="71" fill="white" fill-opacity="0.1" /><circle cx="527" cy="178" r="107" fill="white" fill-opacity="0.09" /><circle cx="697" cy="344" r="74" fill="white" fill-opacity="0.15" /><circle cx="504" cy="325" r="89" fill="white" fill-opacity="0.08" /><circle cx="693" cy="347" r="66" fill="white" fill-opacity="0.13" /><circle cx="214" cy="366" r="133" fill="white" fill-opacity="0.09" /><circle cx="864" cy="179" r="137" fill="white" fill-opacity="0.12" /><circle cx="769" cy="95" r="129" fill="white" fill-opacity="0.15" /><circle cx="950" cy="95" r="67" fill="white" fill-opacity="0.08" />
        
        <!-- Big decorative icon on right -->
        <g transform="translate(850, -50) scale(20)" stroke="white" stroke-width="1.5" fill="none" stroke-opacity="0.2">
             <path d="M8.5 14.5A2.5 2.5 0 0 0 11 12c0-1.38-.5-2-1-3-1.072-2.143-.224-4.054 2-6 .5 2.5 2 4.9 4 6.5 2 1.6 3 3.5 3 5.5a7 7 0 1 1-14 0c0-1.1.2-2.2.6-3.3a1 1 0 0 0 3 2.8z" />
        </g>
        
        <!-- Smaller focused icon on left-center -->
        <g transform="translate(100, 100) scale(8)" stroke="white" stroke-width="2" fill="none" filter="drop-shadow(3px 3px 2px rgba(0,0,0,0.3))">
             <path d="M8.5 14.5A2.5 2.5 0 0 0 11 12c0-1.38-.5-2-1-3-1.072-2.143-.224-4.054 2-6 .5 2.5 2 4.9 4 6.5 2 1.6 3 3.5 3 5.5a7 7 0 1 1-14 0c0-1.1.2-2.2.6-3.3a1 1 0 0 0 3 2.8z" />
        </g>
    </svg>