<svg width="1200" height="400" viewBox="0 0 1200 400" xmlns="http://www.w3.org/2000/svg">
        <defs>
            <linearGradient id="bg" x1="0%" y1="0%" x2="100%" y2="0%">
                <stop offset="0%" style="stop-color:#00B377;stop-opacity:1" />
                <stop offset="100%" style="stop-color:#00E599;stop-opacity:1" />
            </linearGradient>
            <pattern id="grid" width="40" height="40" patternUnits="userSpaceOnUse">
                <path d="M 40 0 L 0 0 0 40" fill="none" stroke="white" stroke-width="1" stroke-opacity="0.1"/>
            </pattern>
        </defs>
        <rect width="1200" height="400" fill="url(#bg)" />
        <rect width="1200" height="400" fill="url(#grid)" />
        <circle cx="119" cy="280" r="173" fill="white" fill-opacity="0.07" /><circle cx="560" cy="204" r="57" fill="white" fill-opacity="0.15" /><circle cx="1084" cy="8" r="140" fill="white" fill-opacity="0.13" /><circle cx="556" cy="380" r="90" fill="white" fill-opacity="0.15" /><circle cx="129" cy="160" r="125" fill="white" fill-opacity="0.09" /><circle cx="961" cy="380" r="99" fill="white" fill-opacity="0.11" /><circle cx="757" cy="35" r="190" fill="white" fill-opacity="0.06" /><circle cx="911" cy="332" r="81" fill="white" fill-opacity="0.05" /><circle cx="73" cy="91" r="155" fill="white" fill-opacity="0.15" /><circle cx="1087" cy="319" r="89" fill="white" fill-opacity="0.12" />
        
        <!-- Big decorative icon on right -->
        <g transform="translate(850, -50) scale(20)" stroke="white" stroke-width="1.5" fill="none" stroke-opacity="0.2">
             <path d="m12 3-1.912 5.813a2 2 0 0 1-1.275 1.275L3 12l5.813 1.912a2 2 0 0 1 1.275 1.275L12 21l1.912-5.813a2 2 0 0 1 1.275-1.275L21 12l-5.813-1.912a2 2 0 0 1-1.275-1.275L12 3Z M5 3l-1.9 2.5a1 1 0 0 1-1.4-.4L1 4l1.9-1.1a1 1 0 0 1 1.4-1.1L5 3Z" />
        </g>
        
        <!-- Smaller focused icon on left-center -->
        <g transform="translate(100, 100) scale(8)" stroke="white" stroke-width="2" fill="none" filter="drop-shadow(3px 3px 2px rgba(0,0,0,0.3))">
             <path d="m12 3-1.912 5.813a2 2 0 0 1-1.275 1.275L3 12l5.813 1.912a2 2 0 0 1 1.275 1.275L12 21l1.912-5.813a2 2 0 0 1 1.275-1.275L21 12l-5.813-1.912a2 2 0 0 1-1.275-1.275L12 3Z M5 3l-1.9 2.5a1 1 0 0 1-1.4-.4L1 4l1.9-1.1a1 1 0 0 1 1.4-1.1L5 3Z" />
        </g>
    </svg>