<svg width="512" height="512" viewBox="0 0 512 512" xmlns="http://www.w3.org/2000/svg">
        <defs>
            <linearGradient id="g" x1="0%" y1="0%" x2="100%" y2="100%">
                <stop offset="0%" style="stop-color:#00E599;stop-opacity:1" />
                <stop offset="100%" style="stop-color:#00B377;stop-opacity:1" />
            </linearGradient>
            <filter id="shadow" x="-20%" y="-20%" width="140%" height="140%">
                <feDropShadow dx="2" dy="2" stdDeviation="2" flood-color="#000000" flood-opacity="0.2"/>
            </filter>
        </defs>
        <rect x="0" y="0" width="512" height="512" rx="128" fill="url(#g)" />
        <g transform="translate(106, 106) scale(12.5)" stroke="#FFFFFF" stroke-width="2" fill="none" stroke-linecap="round" stroke-linejoin="round" filter="url(#shadow)">
            <path d="m12 3-1.912 5.813a2 2 0 0 1-1.275 1.275L3 12l5.813 1.912a2 2 0 0 1 1.275 1.275L12 21l1.912-5.813a2 2 0 0 1 1.275-1.275L21 12l-5.813-1.912a2 2 0 0 1-1.275-1.275L12 3Z M5 3l-1.9 2.5a1 1 0 0 1-1.4-.4L1 4l1.9-1.1a1 1 0 0 1 1.4-1.1L5 3Z" />
        </g>
    </svg>