<svg width="1440" height="800" viewBox="0 0 1440 800" fill="none" xmlns="http://www.w3.org/2000/svg">
  <rect width="1440" height="800" fill="#0D1B2A"/>
  <!-- Abstract blockchain pattern -->
  <g opacity="0.15">
    <circle cx="200" cy="200" r="8" fill="#00E599"/>
    <circle cx="400" cy="120" r="8" fill="#00E599"/>
    <circle cx="600" cy="240" r="8" fill="#00E599"/>
    <circle cx="800" cy="160" r="8" fill="#00E599"/>
    <circle cx="1000" cy="280" r="8" fill="#00E599"/>
    <circle cx="1200" cy="200" r="8" fill="#00E599"/>
    <circle cx="1400" cy="320" r="8" fill="#00E599"/>
    
    <circle cx="300" cy="400" r="8" fill="#00E599"/>
    <circle cx="500" cy="320" r="8" fill="#00E599"/>
    <circle cx="700" cy="440" r="8" fill="#00E599"/>
    <circle cx="900" cy="360" r="8" fill="#00E599"/>
    <circle cx="1100" cy="480" r="8" fill="#00E599"/>
    <circle cx="1300" cy="400" r="8" fill="#00E599"/>
    
    <circle cx="200" cy="600" r="8" fill="#00E599"/>
    <circle cx="400" cy="520" r="8" fill="#00E599"/>
    <circle cx="600" cy="640" r="8" fill="#00E599"/>
    <circle cx="800" cy="560" r="8" fill="#00E599"/>
    <circle cx="1000" cy="680" r="8" fill="#00E599"/>
    <circle cx="1200" cy="600" r="8" fill="#00E599"/>
    <circle cx="1400" cy="720" r="8" fill="#00E599"/>
    
    <!-- Connection lines -->
    <path d="M200 200L400 120" stroke="#00E599" stroke-width="1.5"/>
    <path d="M400 120L600 240" stroke="#00E599" stroke-width="1.5"/>
    <path d="M600 240L800 160" stroke="#00E599" stroke-width="1.5"/>
    <path d="M800 160L1000 280" stroke="#00E599" stroke-width="1.5"/>
    <path d="M1000 280L1200 200" stroke="#00E599" stroke-width="1.5"/>
    <path d="M1200 200L1400 320" stroke="#00E599" stroke-width="1.5"/>
    
    <path d="M200 200L300 400" stroke="#00E599" stroke-width="1.5"/>
    <path d="M400 120L500 320" stroke="#00E599" stroke-width="1.5"/>
    <path d="M600 240L700 440" stroke="#00E599" stroke-width="1.5"/>
    <path d="M800 160L900 360" stroke="#00E599" stroke-width="1.5"/>
    <path d="M1000 280L1100 480" stroke="#00E599" stroke-width="1.5"/>
    <path d="M1200 200L1300 400" stroke="#00E599" stroke-width="1.5"/>
    
    <path d="M300 400L200 600" stroke="#00E599" stroke-width="1.5"/>
    <path d="M500 320L400 520" stroke="#00E599" stroke-width="1.5"/>
    <path d="M700 440L600 640" stroke="#00E599" stroke-width="1.5"/>
    <path d="M900 360L800 560" stroke="#00E599" stroke-width="1.5"/>
    <path d="M1100 480L1000 680" stroke="#00E599" stroke-width="1.5"/>
    <path d="M1300 400L1200 600" stroke="#00E599" stroke-width="1.5"/>
    
    <path d="M200 600L400 520" stroke="#00E599" stroke-width="1.5"/>
    <path d="M400 520L600 640" stroke="#00E599" stroke-width="1.5"/>
    <path d="M600 640L800 560" stroke="#00E599" stroke-width="1.5"/>
    <path d="M800 560L1000 680" stroke="#00E599" stroke-width="1.5"/>
    <path d="M1000 680L1200 600" stroke="#00E599" stroke-width="1.5"/>
    <path d="M1200 600L1400 720" stroke="#00E599" stroke-width="1.5"/>
  </g>
  
  <!-- Gradient overlay -->
  <rect width="1440" height="800" fill="url(#paint0_radial)" fill-opacity="0.5"/>
  
  <defs>
    <radialGradient id="paint0_radial" cx="0" cy="0" r="1" gradientUnits="userSpaceOnUse" gradientTransform="translate(720 400) rotate(90) scale(600 1080)">
      <stop stop-color="#8A4FFF" stop-opacity="0.2"/>
      <stop offset="1" stop-color="#0D1B2A" stop-opacity="0"/>
    </radialGradient>
  </defs>
</svg> 