<svg width="200" height="60" viewBox="0 0 200 60" fill="none" xmlns="http://www.w3.org/2000/svg">
  <!-- N shape with TEE security representation -->
  <path d="M10 10H25V50H40V10H55V50" stroke="#0D1B2A" stroke-width="8" stroke-linecap="round" stroke-linejoin="round"/>
  <!-- Service Layer representation -->
  <path d="M65 30C65 25 70 20 75 20H115C120 20 125 25 125 30C125 35 120 40 115 40H75C70 40 65 35 65 30Z" fill="#00E599" stroke="#0D1B2A" stroke-width="2"/>
  <path d="M75 35C75 30 80 25 85 25H125C130 25 135 30 135 35C135 40 130 45 125 45H85C80 45 75 40 75 35Z" fill="#00E599" stroke="#0D1B2A" stroke-width="2"/>
  <path d="M85 40C85 35 90 30 95 30H135C140 30 145 35 145 40C145 45 140 50 135 50H95C90 50 85 45 85 40Z" fill="#00E599" stroke="#0D1B2A" stroke-width="2"/>
  <!-- TEE security representation -->
  <rect x="155" y="15" width="30" height="30" rx="5" stroke="#0D1B2A" stroke-width="3" fill="none"/>
  <rect x="160" y="20" width="20" height="20" rx="3" stroke="#00E599" stroke-width="3" fill="none"/>
  <circle cx="170" cy="30" r="5" fill="#00E599"/>
</svg> 