<svg width="512" height="512" viewBox="0 0 512 512" fill="none" xmlns="http://www.w3.org/2000/svg">
  <defs>
    <linearGradient id="g1" x1="0" y1="0" x2="1" y2="1">
      <stop offset="0%" stop-color="#00E599"/>
      <stop offset="100%" stop-color="#009966"/>
    </linearGradient>
  </defs>
  <rect width="512" height="512" rx="128" fill="#1A1A1A" />
  <g transform="translate(128, 128) scale(0.5)">
    <!-- Cycle Arrows -->
    <path d="M465 256C465 140.6 371.4 47 256 47C223.3 47 192.5 54.5 164.5 68.1L193.6 97.2C212.8 90.6 233.7 87 256 87C349.3 87 425 162.7 425 256C425 349.3 349.3 425 256 425C162.7 425 87 349.3 87 256H127L63.5 192.5L0 256H47C47 371.4 140.6 465 256 465C371.4 465 465 371.4 465 256Z" fill="url(#g1)"/>
    <!-- Center Coin -->
    <circle cx="256" cy="256" r="60" fill="url(#g1)" opacity="0.8"/>
    <text x="256" y="276" text-anchor="middle" font-family="Arial" font-weight="bold" font-size="50" fill="#1A1A1A">N</text>
  </g>
</svg>
