<svg width="1200" height="400" viewBox="0 0 1200 400" xmlns="http://www.w3.org/2000/svg">
        <defs>
            <linearGradient id="bg" x1="0%" y1="0%" x2="100%" y2="0%">
                <stop offset="0%" style="stop-color:#b45309;stop-opacity:1" />
                <stop offset="100%" style="stop-color:#f59e0b;stop-opacity:1" />
            </linearGradient>
            <pattern id="grid" width="40" height="40" patternUnits="userSpaceOnUse">
                <path d="M 40 0 L 0 0 0 40" fill="none" stroke="white" stroke-width="1" stroke-opacity="0.1"/>
            </pattern>
        </defs>
        <rect width="1200" height="400" fill="url(#bg)" />
        <rect width="1200" height="400" fill="url(#grid)" />
        <circle cx="222" cy="158" r="114" fill="white" fill-opacity="0.09" /><circle cx="935" cy="309" r="182" fill="white" fill-opacity="0.08" /><circle cx="1007" cy="56" r="109" fill="white" fill-opacity="0.1" /><circle cx="865" cy="359" r="93" fill="white" fill-opacity="0.05" /><circle cx="48" cy="235" r="88" fill="white" fill-opacity="0.14" /><circle cx="787" cy="165" r="96" fill="white" fill-opacity="0.15" /><circle cx="70" cy="197" r="118" fill="white" fill-opacity="0.05" /><circle cx="816" cy="350" r="145" fill="white" fill-opacity="0.12" /><circle cx="568" cy="11" r="163" fill="white" fill-opacity="0.1" /><circle cx="407" cy="90" r="159" fill="white" fill-opacity="0.14" />
        
        <!-- Big decorative icon on right -->
        <g transform="translate(850, -50) scale(20)" stroke="white" stroke-width="1.5" fill="none" stroke-opacity="0.2">
             <path d="M5 2h14 M5 22h14 M6 2v6l4 4-4 4v6 M18 2v6l-4 4 4 4v6" />
        </g>
        
        <!-- Smaller focused icon on left-center -->
        <g transform="translate(100, 100) scale(8)" stroke="white" stroke-width="2" fill="none" filter="drop-shadow(3px 3px 2px rgba(0,0,0,0.3))">
             <path d="M5 2h14 M5 22h14 M6 2v6l4 4-4 4v6 M18 2v6l-4 4 4 4v6" />
        </g>
    </svg>