<svg width="1200" height="400" viewBox="0 0 1200 400" xmlns="http://www.w3.org/2000/svg">
        <defs>
            <linearGradient id="bg" x1="0%" y1="0%" x2="100%" y2="0%">
                <stop offset="0%" style="stop-color:#00B377;stop-opacity:1" />
                <stop offset="100%" style="stop-color:#00E599;stop-opacity:1" />
            </linearGradient>
            <pattern id="grid" width="40" height="40" patternUnits="userSpaceOnUse">
                <path d="M 40 0 L 0 0 0 40" fill="none" stroke="white" stroke-width="1" stroke-opacity="0.1"/>
            </pattern>
        </defs>
        <rect width="1200" height="400" fill="url(#bg)" />
        <rect width="1200" height="400" fill="url(#grid)" />
        <circle cx="18" cy="91" r="108" fill="white" fill-opacity="0.12" /><circle cx="486" cy="160" r="144" fill="white" fill-opacity="0.07" /><circle cx="797" cy="170" r="168" fill="white" fill-opacity="0.14" /><circle cx="650" cy="345" r="101" fill="white" fill-opacity="0.12" /><circle cx="678" cy="122" r="100" fill="white" fill-opacity="0.15" /><circle cx="521" cy="380" r="171" fill="white" fill-opacity="0.06" /><circle cx="728" cy="159" r="92" fill="white" fill-opacity="0.09" /><circle cx="478" cy="223" r="181" fill="white" fill-opacity="0.09" /><circle cx="371" cy="58" r="153" fill="white" fill-opacity="0.09" /><circle cx="20" cy="201" r="83" fill="white" fill-opacity="0.07" />
        
        <!-- Big decorative icon on right -->
        <g transform="translate(850, -50) scale(20)" stroke="white" stroke-width="1.5" fill="none" stroke-opacity="0.2">
             <path d="M4.5 16.5c-1.5 1.26-2 5-2 5s3.74-.5 5-2c.48-.56.45-1.39-.17-2.02l-2.02 2.02c-.39.39-1.02.39-1.41 0-.39-.39-.39-1.02 0-1.41l2.02-2.02c-.63-.62-1.46-.65-2.02-.17zm7.5-6.5C12 9.5 12 6.5 12 3c0 0-4.5 0-7 2.5S2.5 11.5 3 13c0 0 4 .5 10.5-3zM20.5 7.5L13 15c-.5.5-1.5.5-2 0l-4-4c-.5-.5-.5-1.5 0-2l7.5-7.5c1-1 4.5-1.5 6.5-1 .5 2 0 5.5-1 6.5z" />
        </g>
        
        <!-- Smaller focused icon on left-center -->
        <g transform="translate(100, 100) scale(8)" stroke="white" stroke-width="2" fill="none" filter="drop-shadow(3px 3px 2px rgba(0,0,0,0.3))">
             <path d="M4.5 16.5c-1.5 1.26-2 5-2 5s3.74-.5 5-2c.48-.56.45-1.39-.17-2.02l-2.02 2.02c-.39.39-1.02.39-1.41 0-.39-.39-.39-1.02 0-1.41l2.02-2.02c-.63-.62-1.46-.65-2.02-.17zm7.5-6.5C12 9.5 12 6.5 12 3c0 0-4.5 0-7 2.5S2.5 11.5 3 13c0 0 4 .5 10.5-3zM20.5 7.5L13 15c-.5.5-1.5.5-2 0l-4-4c-.5-.5-.5-1.5 0-2l7.5-7.5c1-1 4.5-1.5 6.5-1 .5 2 0 5.5-1 6.5z" />
        </g>
    </svg>