<svg width="512" height="512" viewBox="0 0 512 512" xmlns="http://www.w3.org/2000/svg">
        <defs>
            <linearGradient id="g" x1="0%" y1="0%" x2="100%" y2="100%">
                <stop offset="0%" style="stop-color:#00E599;stop-opacity:1" />
                <stop offset="100%" style="stop-color:#00B377;stop-opacity:1" />
            </linearGradient>
            <filter id="shadow" x="-20%" y="-20%" width="140%" height="140%">
                <feDropShadow dx="2" dy="2" stdDeviation="2" flood-color="#000000" flood-opacity="0.2"/>
            </filter>
        </defs>
        <rect x="0" y="0" width="512" height="512" rx="128" fill="url(#g)" />
        <g transform="translate(106, 106) scale(12.5)" stroke="#FFFFFF" stroke-width="2" fill="none" stroke-linecap="round" stroke-linejoin="round" filter="url(#shadow)">
            <path d="M4.5 16.5c-1.5 1.26-2 5-2 5s3.74-.5 5-2c.48-.56.45-1.39-.17-2.02l-2.02 2.02c-.39.39-1.02.39-1.41 0-.39-.39-.39-1.02 0-1.41l2.02-2.02c-.63-.62-1.46-.65-2.02-.17zm7.5-6.5C12 9.5 12 6.5 12 3c0 0-4.5 0-7 2.5S2.5 11.5 3 13c0 0 4 .5 10.5-3zM20.5 7.5L13 15c-.5.5-1.5.5-2 0l-4-4c-.5-.5-.5-1.5 0-2l7.5-7.5c1-1 4.5-1.5 6.5-1 .5 2 0 5.5-1 6.5z" />
        </g>
    </svg>