<svg xmlns="http://www.w3.org/2000/svg" viewBox="0 0 64 64" fill="none">
  <defs>
    <linearGradient id="breakup-bg" x1="0%" y1="0%" x2="100%" y2="100%">
      <stop offset="0%" style="stop-color:#EC4899"/>
      <stop offset="100%" style="stop-color:#BE185D"/>
    </linearGradient>
  </defs>
  <rect width="64" height="64" rx="12" fill="url(#breakup-bg)"/>
  <path d="M22 48c-1 0-1.8-.4-2.5-1C14 42 10 37.5 10 32c0-4 3-7 7-7 2 0 4 1 5 2.5 1-1.5 3-2.5 5-2.5 4 0 7 3 7 7 0 5.5-4 10-9.5 15-0.7.6-1.5 1-2.5 1z" fill="#fff" opacity="0.9"/>
  <path d="M42 48c-1 0-1.8-.4-2.5-1C34 42 30 37.5 30 32c0-4 3-7 7-7 2 0 4 1 5 2.5 1-1.5 3-2.5 5-2.5 4 0 7 3 7 7 0 5.5-4 10-9.5 15-0.7.6-1.5 1-2.5 1z" fill="#fff" opacity="0.9"/>
  <path d="M26 30l12 12M38 30l-12 12" stroke="#BE185D" stroke-width="3" stroke-linecap="round"/>
  <rect x="20" y="10" width="24" height="14" rx="2" fill="#fff" opacity="0.8"/>
  <path d="M24 14h16M24 18h12" stroke="#BE185D" stroke-width="2" stroke-linecap="round"/>
</svg>
