<svg width="1200" height="400" viewBox="0 0 1200 400" xmlns="http://www.w3.org/2000/svg">
        <defs>
            <linearGradient id="bg" x1="0%" y1="0%" x2="100%" y2="0%">
                <stop offset="0%" style="stop-color:#00B377;stop-opacity:1" />
                <stop offset="100%" style="stop-color:#00E599;stop-opacity:1" />
            </linearGradient>
            <pattern id="grid" width="40" height="40" patternUnits="userSpaceOnUse">
                <path d="M 40 0 L 0 0 0 40" fill="none" stroke="white" stroke-width="1" stroke-opacity="0.1"/>
            </pattern>
        </defs>
        <rect width="1200" height="400" fill="url(#bg)" />
        <rect width="1200" height="400" fill="url(#grid)" />
        <circle cx="1173" cy="27" r="187" fill="white" fill-opacity="0.13" /><circle cx="164" cy="240" r="118" fill="white" fill-opacity="0.12" /><circle cx="1089" cy="58" r="166" fill="white" fill-opacity="0.1" /><circle cx="961" cy="127" r="166" fill="white" fill-opacity="0.12" /><circle cx="816" cy="223" r="108" fill="white" fill-opacity="0.13" /><circle cx="795" cy="11" r="102" fill="white" fill-opacity="0.15" /><circle cx="94" cy="223" r="195" fill="white" fill-opacity="0.11" /><circle cx="237" cy="400" r="165" fill="white" fill-opacity="0.07" /><circle cx="685" cy="391" r="146" fill="white" fill-opacity="0.1" /><circle cx="437" cy="306" r="88" fill="white" fill-opacity="0.11" />
        
        <!-- Big decorative icon on right -->
        <g transform="translate(850, -50) scale(20)" stroke="white" stroke-width="1.5" fill="none" stroke-opacity="0.2">
             <path d="M3 3h7v7H3zM14 3h7v7h-7zM14 14h7v7h-7zM3 14h7v7H3z" />
        </g>
        
        <!-- Smaller focused icon on left-center -->
        <g transform="translate(100, 100) scale(8)" stroke="white" stroke-width="2" fill="none" filter="drop-shadow(3px 3px 2px rgba(0,0,0,0.3))">
             <path d="M3 3h7v7H3zM14 3h7v7h-7zM14 14h7v7h-7zM3 14h7v7H3z" />
        </g>
    </svg>