<svg xmlns="http://www.w3.org/2000/svg" viewBox="0 0 32 32">
  <circle cx="16" cy="16" r="16" fill="#8247E5"/>
  <path d="M21.2 12.3c-.4-.2-.9-.2-1.2 0l-2.9 1.7-2 1.1-2.9 1.7c-.4.2-.9.2-1.2 0l-2.3-1.3c-.4-.2-.6-.6-.6-1v-2.6c0-.4.2-.8.6-1l2.3-1.3c.4-.2.9-.2 1.2 0l2.3 1.3c.4.2.6.6.6 1v1.7l2-1.1v-1.7c0-.4-.2-.8-.6-1l-4.2-2.4c-.4-.2-.9-.2-1.2 0l-4.3 2.5c-.4.2-.6.6-.6 1v4.9c0 .4.2.8.6 1l4.3 2.4c.4.2.9.2 1.2 0l2.9-1.7 2-1.1 2.9-1.7c.4-.2.9-.2 1.2 0l2.3 1.3c.4.2.6.6.6 1v2.6c0 .4-.2.8-.6 1l-2.3 1.3c-.4.2-.9.2-1.2 0l-2.3-1.3c-.4-.2-.6-.6-.6-1v-1.7l-2 1.1v1.7c0 .4.2.8.6 1l4.3 2.4c.4.2.9.2 1.2 0l4.3-2.4c.4-.2.6-.6.6-1v-4.9c0-.4-.2-.8-.6-1l-4.4-2.5z" fill="white"/>
</svg>
