<svg width="1200" height="400" viewBox="0 0 1200 400" xmlns="http://www.w3.org/2000/svg">
        <defs>
            <linearGradient id="bg" x1="0%" y1="0%" x2="100%" y2="0%">
                <stop offset="0%" style="stop-color:#6d28d9;stop-opacity:1" />
                <stop offset="100%" style="stop-color:#8b5cf6;stop-opacity:1" />
            </linearGradient>
            <pattern id="grid" width="40" height="40" patternUnits="userSpaceOnUse">
                <path d="M 40 0 L 0 0 0 40" fill="none" stroke="white" stroke-width="1" stroke-opacity="0.1"/>
            </pattern>
        </defs>
        <rect width="1200" height="400" fill="url(#bg)" />
        <rect width="1200" height="400" fill="url(#grid)" />
        <circle cx="461" cy="87" r="162" fill="white" fill-opacity="0.09" /><circle cx="234" cy="188" r="81" fill="white" fill-opacity="0.06" /><circle cx="1012" cy="267" r="72" fill="white" fill-opacity="0.11" /><circle cx="1181" cy="184" r="192" fill="white" fill-opacity="0.14" /><circle cx="341" cy="200" r="117" fill="white" fill-opacity="0.15" /><circle cx="1029" cy="131" r="61" fill="white" fill-opacity="0.06" /><circle cx="756" cy="229" r="186" fill="white" fill-opacity="0.09" /><circle cx="296" cy="138" r="97" fill="white" fill-opacity="0.07" /><circle cx="93" cy="363" r="128" fill="white" fill-opacity="0.13" /><circle cx="420" cy="86" r="117" fill="white" fill-opacity="0.11" />
        
        <!-- Big decorative icon on right -->
        <g transform="translate(850, -50) scale(20)" stroke="white" stroke-width="1.5" fill="none" stroke-opacity="0.2">
             <path d="M12 2a5 5 0 0 0-5 5v3H6v6h4v4h4v-4h4v-6h-1V7a5 5 0 0 0-5-5z M9 12h2v2H9z M13 12h2v2h-2z" />
        </g>
        
        <!-- Smaller focused icon on left-center -->
        <g transform="translate(100, 100) scale(8)" stroke="white" stroke-width="2" fill="none" filter="drop-shadow(3px 3px 2px rgba(0,0,0,0.3))">
             <path d="M12 2a5 5 0 0 0-5 5v3H6v6h4v4h4v-4h4v-6h-1V7a5 5 0 0 0-5-5z M9 12h2v2H9z M13 12h2v2h-2z" />
        </g>
    </svg>