<svg width="64" height="64" viewBox="0 0 64 64" fill="none" xmlns="http://www.w3.org/2000/svg">
  <defs>
    <linearGradient id="autoGrad" x1="0%" y1="0%" x2="100%" y2="100%">
      <stop offset="0%" stop-color="#00E599" stop-opacity="0.8" />
      <stop offset="100%" stop-color="#00C180" stop-opacity="0.9" />
    </linearGradient>
    <filter id="autoShadow" x="-2" y="0" width="110%" height="110%">
      <feDropShadow dx="0" dy="1" stdDeviation="1" flood-opacity="0.3" />
    </filter>
    <clipPath id="gearClip">
      <circle cx="32" cy="32" r="24" />
    </clipPath>
  </defs>
  
  <!-- Background with rounded corners -->
  <rect width="64" height="64" rx="16" fill="#E8F9F3"/>
  
  <!-- Main Gear -->
  <circle cx="32" cy="32" r="24" fill="url(#autoGrad)" filter="url(#autoShadow)"/>
  
  <!-- Gear Teeth -->
  <path d="M32 8V14" stroke="#0D1B2A" stroke-width="4" stroke-linecap="round" />
  <path d="M32 50V56" stroke="#0D1B2A" stroke-width="4" stroke-linecap="round" />
  <path d="M56 32H50" stroke="#0D1B2A" stroke-width="4" stroke-linecap="round" />
  <path d="M14 32H8" stroke="#0D1B2A" stroke-width="4" stroke-linecap="round" />
  <path d="M48.97 15.03L44.83 19.17" stroke="#0D1B2A" stroke-width="4" stroke-linecap="round" />
  <path d="M19.17 44.83L15.03 48.97" stroke="#0D1B2A" stroke-width="4" stroke-linecap="round" />
  <path d="M48.97 48.97L44.83 44.83" stroke="#0D1B2A" stroke-width="4" stroke-linecap="round" />
  <path d="M19.17 19.17L15.03 15.03" stroke="#0D1B2A" stroke-width="4" stroke-linecap="round" />
  
  <!-- Clock Face (Time Trigger) -->
  <circle cx="32" cy="32" r="16" fill="#FFFFFF" />
  <circle cx="32" cy="32" r="14" fill="#0D1B2A" fill-opacity="0.9" />
  
  <!-- Clock Hands -->
  <path d="M32 32L32 24" stroke="#FFFFFF" stroke-width="2" stroke-linecap="round" />
  <path d="M32 32L38 36" stroke="#00E599" stroke-width="2" stroke-linecap="round" />
  
  <!-- Clock Marks -->
  <path d="M32 20V22" stroke="#FFFFFF" stroke-width="1" stroke-linecap="round" />
  <path d="M32 42V44" stroke="#FFFFFF" stroke-width="1" stroke-linecap="round" />
  <path d="M20 32H22" stroke="#FFFFFF" stroke-width="1" stroke-linecap="round" />
  <path d="M42 32H44" stroke="#FFFFFF" stroke-width="1" stroke-linecap="round" />
  
  <!-- Contract Document with Lightning (Action) -->
  <rect x="42" y="12" width="8" height="10" rx="1" fill="#FFFFFF" />
  <path d="M43 14H49" stroke="#00E599" stroke-width="1" stroke-linecap="round" />
  <path d="M43 16H47" stroke="#00E599" stroke-width="1" stroke-linecap="round" />
  <path d="M43 18H49" stroke="#00E599" stroke-width="1" stroke-linecap="round" />
  <path d="M48 7L45 13L49 11L46 17" stroke="#FFFFFF" stroke-width="1.5" stroke-linecap="round" stroke-linejoin="round" />
</svg> 