<svg width="64" height="64" viewBox="0 0 64 64" fill="none" xmlns="http://www.w3.org/2000/svg">
  <defs>
    <linearGradient id="functionGrad" x1="0%" y1="0%" x2="100%" y2="100%">
      <stop offset="0%" stop-color="#00E599" stop-opacity="0.8" />
      <stop offset="100%" stop-color="#00C180" stop-opacity="0.9" />
    </linearGradient>
    <filter id="functionShadow" x="-2" y="0" width="110%" height="110%">
      <feDropShadow dx="0" dy="1" stdDeviation="1" flood-opacity="0.3" />
    </filter>
  </defs>
  
  <!-- Background with rounded corners -->
  <rect width="64" height="64" rx="16" fill="#E8F9F3"/>
  
  <!-- TEE Container -->
  <rect x="10" y="10" width="44" height="44" rx="10" fill="url(#functionGrad)" filter="url(#functionShadow)"/>
  
  <!-- Code Window -->
  <rect x="14" y="14" width="36" height="28" rx="4" fill="#0D1B2A" fill-opacity="0.9"/>
  
  <!-- Code Lines -->
  <line x1="18" y1="20" x2="32" y2="20" stroke="#00E599" stroke-width="2" stroke-linecap="round"/>
  <line x1="18" y1="26" x2="38" y2="26" stroke="#FFFFFF" stroke-width="2" stroke-linecap="round"/>
  <line x1="18" y1="32" x2="34" y2="32" stroke="#FFFFFF" stroke-width="2" stroke-linecap="round"/>
  <line x1="18" y1="38" x2="28" y2="38" stroke="#00E599" stroke-width="2" stroke-linecap="round"/>
  
  <!-- Shield for TEE Security -->
  <path d="M32 46C32 46 40 44 40 44V32C40 32 36 30 32 30C28 30 24 32 24 32V44C24 44 32 46 32 46Z" fill="#FFFFFF" filter="url(#functionShadow)"/>
  <path d="M32 44C32 44 38 42.5 38 42.5V33C38 33 35 31.5 32 31.5C29 31.5 26 33 26 33V42.5C26 42.5 32 44 32 44Z" fill="#00E599" opacity="0.8"/>
  
  <!-- Lock Icon for Security -->
  <circle cx="32" cy="38" r="2" fill="#0D1B2A"/>
  <path d="M30 38V36C30 34.8954 30.8954 34 32 34V34C33.1046 34 34 34.8954 34 36V38" stroke="#0D1B2A" stroke-width="1.5" stroke-linecap="round"/>
</svg> 