<svg width="64" height="64" viewBox="0 0 64 64" fill="none" xmlns="http://www.w3.org/2000/svg">
  <defs>
    <linearGradient id="gasGrad" x1="0%" y1="0%" x2="100%" y2="100%">
      <stop offset="0%" stop-color="#00E599" stop-opacity="0.8" />
      <stop offset="100%" stop-color="#00C180" stop-opacity="0.9" />
    </linearGradient>
    <filter id="gasShadow" x="-2" y="0" width="110%" height="110%">
      <feDropShadow dx="0" dy="1" stdDeviation="1" flood-opacity="0.3" />
    </filter>
    <linearGradient id="gasLiquid" x1="0%" y1="0%" x2="0%" y2="100%">
      <stop offset="0%" stop-color="#00E599" stop-opacity="1" />
      <stop offset="100%" stop-color="#00C180" stop-opacity="0.8" />
    </linearGradient>
  </defs>
  
  <!-- Background with rounded corners -->
  <rect width="64" height="64" rx="16" fill="#E8F9F3"/>
  
  <!-- Bank/Vault Background -->
  <rect x="10" y="18" width="44" height="36" rx="6" fill="url(#gasGrad)" filter="url(#gasShadow)"/>
  
  <!-- Bank Columns -->
  <rect x="14" y="22" width="6" height="24" rx="2" fill="#FFFFFF"/>
  <rect x="29" y="22" width="6" height="24" rx="2" fill="#FFFFFF"/>
  <rect x="44" y="22" width="6" height="24" rx="2" fill="#FFFFFF"/>
  
  <!-- Bank Roof/Pediment -->
  <path d="M8 18H56L32 8L8 18Z" fill="#0D1B2A" fill-opacity="0.9"/>
  
  <!-- Gas Tank -->
  <rect x="20" y="26" width="24" height="20" rx="3" fill="#0D1B2A" fill-opacity="0.7"/>
  
  <!-- Gas Level -->
  <rect x="22" y="36" width="20" height="8" rx="1" fill="url(#gasLiquid)"/>
  
  <!-- Gas Bubbles -->
  <circle cx="26" cy="34" r="1.5" fill="#00E599" opacity="0.6"/>
  <circle cx="32" cy="32" r="1" fill="#00E599" opacity="0.6"/>
  <circle cx="38" cy="33" r="1.2" fill="#00E599" opacity="0.6"/>
  
  <!-- Gas Meter Dial -->
  <circle cx="32" cy="30" r="4" fill="#FFFFFF"/>
  <path d="M32 30L35 32" stroke="#0D1B2A" stroke-width="1" stroke-linecap="round"/>
  <path d="M32 30L30 32" stroke="#0D1B2A" stroke-width="1" stroke-linecap="round"/>
  
  <!-- Money/Value Indicators -->
  <circle cx="16" cy="52" r="3" fill="#FFFFFF"/>
  <path d="M16 51.5V53.5" stroke="#00C180" stroke-width="1" stroke-linecap="round"/>
  <path d="M14.5 52H17.5" stroke="#00C180" stroke-width="1" stroke-linecap="round"/>
  
  <circle cx="32" cy="52" r="3" fill="#FFFFFF"/>
  <path d="M32 51.5V53.5" stroke="#00C180" stroke-width="1" stroke-linecap="round"/>
  <path d="M30.5 52H33.5" stroke="#00C180" stroke-width="1" stroke-linecap="round"/>
  
  <circle cx="48" cy="52" r="3" fill="#FFFFFF"/>
  <path d="M48 51.5V53.5" stroke="#00C180" stroke-width="1" stroke-linecap="round"/>
  <path d="M46.5 52H49.5" stroke="#00C180" stroke-width="1" stroke-linecap="round"/>
</svg> 