<svg width="64" height="64" viewBox="0 0 64 64" fill="none" xmlns="http://www.w3.org/2000/svg">
  <defs>
    <linearGradient id="oracleGrad" x1="0%" y1="0%" x2="100%" y2="100%">
      <stop offset="0%" stop-color="#00E599" stop-opacity="0.8" />
      <stop offset="100%" stop-color="#00C180" stop-opacity="0.9" />
    </linearGradient>
    <filter id="oracleShadow" x="-2" y="0" width="110%" height="110%">
      <feDropShadow dx="0" dy="1" stdDeviation="1" flood-opacity="0.3" />
    </filter>
    <linearGradient id="glowGrad" x1="0%" y1="0%" x2="100%" y2="100%">
      <stop offset="0%" stop-color="#FFFFFF" stop-opacity="0.9" />
      <stop offset="100%" stop-color="#00E599" stop-opacity="0.6" />
    </linearGradient>
  </defs>
  
  <!-- Background with rounded corners -->
  <rect width="64" height="64" rx="16" fill="#E8F9F3"/>
  
  <!-- Crystal Ball -->
  <circle cx="32" cy="32" r="20" fill="url(#oracleGrad)" filter="url(#oracleShadow)"/>
  <circle cx="32" cy="32" r="18" fill="#0D1B2A" fill-opacity="0.7"/>
  <circle cx="32" cy="32" r="16" fill="url(#glowGrad)" fill-opacity="0.2"/>
  
  <!-- Light Reflection -->
  <ellipse cx="28" cy="26" rx="8" ry="6" fill="#FFFFFF" fill-opacity="0.3"/>
  
  <!-- Ball Stand -->
  <path d="M22 44H42L38 52H26L22 44Z" fill="#0D1B2A"/>
  
  <!-- Data Flow Lines -->
  <path d="M24 20L14 12" stroke="#FFFFFF" stroke-width="1.5" stroke-linecap="round"/>
  <path d="M40 20L50 12" stroke="#FFFFFF" stroke-width="1.5" stroke-linecap="round"/>
  <path d="M20 30L8 32" stroke="#FFFFFF" stroke-width="1.5" stroke-linecap="round"/>
  <path d="M44 30L56 32" stroke="#FFFFFF" stroke-width="1.5" stroke-linecap="round"/>
  
  <!-- Data Points -->
  <circle cx="14" cy="12" r="3" fill="#FFFFFF" filter="url(#oracleShadow)"/>
  <circle cx="50" cy="12" r="3" fill="#FFFFFF" filter="url(#oracleShadow)"/>
  <circle cx="8" cy="32" r="3" fill="#FFFFFF" filter="url(#oracleShadow)"/>
  <circle cx="56" cy="32" r="3" fill="#FFFFFF" filter="url(#oracleShadow)"/>
  
  <!-- Data Icons -->
  <text x="14" y="14" font-family="Arial, sans-serif" font-size="4" font-weight="bold" fill="#00C180" text-anchor="middle">API</text>
  <text x="50" y="14" font-family="Arial, sans-serif" font-size="4" font-weight="bold" fill="#00C180" text-anchor="middle">DB</text>
  <text x="8" y="34" font-family="Arial, sans-serif" font-size="4" font-weight="bold" fill="#00C180" text-anchor="middle">IoT</text>
  <text x="56" y="34" font-family="Arial, sans-serif" font-size="4" font-weight="bold" fill="#00C180" text-anchor="middle">WEB</text>
  
  <!-- Inner Data Visualization -->
  <path d="M26 30L30 34L38 26" stroke="#00E599" stroke-width="2" stroke-linecap="round" stroke-linejoin="round"/>
  
  <!-- Stars -->
  <path d="M28 16L29 18L31 18L29.5 19.5L30 21.5L28 20.5L26 21.5L26.5 19.5L25 18L27 18L28 16Z" fill="#00E599" opacity="0.8"/>
  <path d="M38 17L39 19L41 19L39.5 20.5L40 22.5L38 21.5L36 22.5L36.5 20.5L35 19L37 19L38 17Z" fill="#00E599" opacity="0.8"/>
</svg>