<svg width="64" height="64" viewBox="0 0 64 64" fill="none" xmlns="http://www.w3.org/2000/svg">
  <defs>
    <linearGradient id="randomGrad" x1="0%" y1="0%" x2="100%" y2="100%">
      <stop offset="0%" stop-color="#00E599" stop-opacity="0.8" />
      <stop offset="100%" stop-color="#00C180" stop-opacity="0.9" />
    </linearGradient>
    <filter id="randomShadow" x="-2" y="0" width="110%" height="110%">
      <feDropShadow dx="0" dy="1" stdDeviation="1" flood-opacity="0.3" />
    </filter>
  </defs>
  
  <!-- Background with rounded corners -->
  <rect width="64" height="64" rx="16" fill="#E8F9F3"/>
  
  <!-- Main Dice Container -->
  <rect x="12" y="12" width="40" height="40" rx="8" fill="url(#randomGrad)" filter="url(#randomShadow)"/>
  
  <!-- Dice -->
  <rect x="20" y="20" width="24" height="24" rx="4" fill="#FFFFFF" filter="url(#randomShadow)"/>
  
  <!-- Dice Dots (Random Pattern) -->
  <circle cx="26" cy="26" r="2.5" fill="#0D1B2A"/>
  <circle cx="38" cy="26" r="2.5" fill="#0D1B2A"/>
  <circle cx="32" cy="32" r="2.5" fill="#0D1B2A"/>
  <circle cx="26" cy="38" r="2.5" fill="#0D1B2A"/>
  <circle cx="38" cy="38" r="2.5" fill="#0D1B2A"/>
  
  <!-- Random Numbers -->
  <text x="16" y="18" font-family="Arial, sans-serif" font-size="7" font-weight="bold" fill="#FFFFFF">7</text>
  <text x="46" y="18" font-family="Arial, sans-serif" font-size="7" font-weight="bold" fill="#FFFFFF">3</text>
  <text x="46" y="54" font-family="Arial, sans-serif" font-size="7" font-weight="bold" fill="#FFFFFF">9</text>
  <text x="16" y="54" font-family="Arial, sans-serif" font-size="7" font-weight="bold" fill="#FFFFFF">2</text>
  
  <!-- Random Elements - Cards -->
  <rect x="14" y="24" width="8" height="12" rx="1" fill="#FFFFFF" transform="rotate(-15 14 24)" filter="url(#randomShadow)"/>
  <rect x="14" y="38" width="8" height="12" rx="1" fill="#FFFFFF" transform="rotate(20 14 38)" filter="url(#randomShadow)"/>
  <rect x="44" y="22" width="8" height="12" rx="1" fill="#FFFFFF" transform="rotate(10 44 22)" filter="url(#randomShadow)"/>
  <rect x="42" y="38" width="8" height="12" rx="1" fill="#FFFFFF" transform="rotate(-10 42 38)" filter="url(#randomShadow)"/>
  
  <!-- Verification Shield -->
  <path d="M32 48C32 48 38 46 38 46V40C38 40 35 38 32 38C29 38 26 40 26 40V46C26 46 32 48 32 48Z" fill="#00C180" fill-opacity="0.8"/>
  <path d="M32 47C32 47 36 45.5 36 45.5V40.5C36 40.5 34 39 32 39C30 39 28 40.5 28 40.5V45.5C28 45.5 32 47 32 47Z" fill="#FFFFFF"/>
  <path d="M31 44L29 42L30 41L31 42L34 39L35 40L31 44Z" fill="#00C180"/>
</svg> 