<svg width="64" height="64" viewBox="0 0 64 64" fill="none" xmlns="http://www.w3.org/2000/svg">
  <defs>
    <linearGradient id="secretsGrad" x1="0%" y1="0%" x2="100%" y2="100%">
      <stop offset="0%" stop-color="#00E599" stop-opacity="0.8" />
      <stop offset="100%" stop-color="#00C180" stop-opacity="0.9" />
    </linearGradient>
    <filter id="secretsShadow" x="-2" y="0" width="110%" height="110%">
      <feDropShadow dx="0" dy="1" stdDeviation="1" flood-opacity="0.3" />
    </filter>
    <clipPath id="keyHole">
      <path d="M32,40 v-6 c0,-2.2 -1.8,-4 -4,-4 h-1.5 c-2.5,0 -4.5,2 -4.5,4.5 c0,2.5 2,4.5 4.5,4.5 h1.5 v1 z" />
    </clipPath>
  </defs>
  
  <!-- Background with rounded corners -->
  <rect width="64" height="64" rx="16" fill="#E8F9F3"/>
  
  <!-- Vault -->
  <rect x="12" y="16" width="40" height="36" rx="6" fill="url(#secretsGrad)" filter="url(#secretsShadow)"/>
  
  <!-- Lock Mechanism -->
  <circle cx="32" cy="28" r="10" fill="#FFFFFF" />
  <circle cx="32" cy="28" r="8" fill="#0D1B2A" fill-opacity="0.9" />
  
  <!-- Vault Door -->
  <rect x="16" y="20" width="32" height="28" rx="4" fill="#0D1B2A" fill-opacity="0.8" />
  
  <!-- Vault Handle -->
  <circle cx="32" cy="34" r="6" fill="#00E599" />
  <circle cx="32" cy="34" r="4" fill="#0D1B2A" />
  <path d="M32 30V38" stroke="#00E599" stroke-width="1.5" stroke-linecap="round" />
  <path d="M28 34H36" stroke="#00E599" stroke-width="1.5" stroke-linecap="round" />
  
  <!-- Lock Dial Numbers -->
  <path d="M32 20V22" stroke="#FFFFFF" stroke-width="1" stroke-linecap="round" />
  <path d="M40 28H38" stroke="#FFFFFF" stroke-width="1" stroke-linecap="round" />
  <path d="M32 36V34" stroke="#FFFFFF" stroke-width="1" stroke-linecap="round" />
  <path d="M24 28H26" stroke="#FFFFFF" stroke-width="1" stroke-linecap="round" />
  
  <!-- Key Icons -->
  <path d="M48 46L44 42" stroke="#FFFFFF" stroke-width="1.5" stroke-linecap="round" />
  <circle cx="42" cy="40" r="3" stroke="#FFFFFF" stroke-width="1.5" fill="none" />
  
  <path d="M16 46L20 42" stroke="#FFFFFF" stroke-width="1.5" stroke-linecap="round" />
  <circle cx="22" cy="40" r="3" stroke="#FFFFFF" stroke-width="1.5" fill="none" />
</svg> 