<svg width="1200" height="400" viewBox="0 0 1200 400" xmlns="http://www.w3.org/2000/svg">
        <defs>
            <linearGradient id="bg" x1="0%" y1="0%" x2="100%" y2="0%">
                <stop offset="0%" style="stop-color:#be185d;stop-opacity:1" />
                <stop offset="100%" style="stop-color:#ec4899;stop-opacity:1" />
            </linearGradient>
            <pattern id="grid" width="40" height="40" patternUnits="userSpaceOnUse">
                <path d="M 40 0 L 0 0 0 40" fill="none" stroke="white" stroke-width="1" stroke-opacity="0.1"/>
            </pattern>
        </defs>
        <rect width="1200" height="400" fill="url(#bg)" />
        <rect width="1200" height="400" fill="url(#grid)" />
        <circle cx="603" cy="172" r="51" fill="white" fill-opacity="0.08" /><circle cx="214" cy="214" r="178" fill="white" fill-opacity="0.09" /><circle cx="864" cy="23" r="129" fill="white" fill-opacity="0.12" /><circle cx="31" cy="47" r="77" fill="white" fill-opacity="0.15" /><circle cx="246" cy="323" r="115" fill="white" fill-opacity="0.11" /><circle cx="1197" cy="199" r="99" fill="white" fill-opacity="0.07" /><circle cx="293" cy="178" r="138" fill="white" fill-opacity="0.1" /><circle cx="919" cy="20" r="124" fill="white" fill-opacity="0.15" /><circle cx="923" cy="208" r="166" fill="white" fill-opacity="0.1" /><circle cx="476" cy="110" r="75" fill="white" fill-opacity="0.07" />
        
        <!-- Big decorative icon on right -->
        <g transform="translate(850, -50) scale(20)" stroke="white" stroke-width="1.5" fill="none" stroke-opacity="0.2">
             <path d="M14 2H6a2 2 0 0 0-2 2v16a2 2 0 0 0 2 2h12a2 2 0 0 0 2-2V8z M14 2v6h6" />
        </g>
        
        <!-- Smaller focused icon on left-center -->
        <g transform="translate(100, 100) scale(8)" stroke="white" stroke-width="2" fill="none" filter="drop-shadow(3px 3px 2px rgba(0,0,0,0.3))">
             <path d="M14 2H6a2 2 0 0 0-2 2v16a2 2 0 0 0 2 2h12a2 2 0 0 0 2-2V8z M14 2v6h6" />
        </g>
    </svg>