<svg width="1200" height="400" viewBox="0 0 1200 400" xmlns="http://www.w3.org/2000/svg">
        <defs>
            <linearGradient id="bg" x1="0%" y1="0%" x2="100%" y2="0%">
                <stop offset="0%" style="stop-color:#00B377;stop-opacity:1" />
                <stop offset="100%" style="stop-color:#00E599;stop-opacity:1" />
            </linearGradient>
            <pattern id="grid" width="40" height="40" patternUnits="userSpaceOnUse">
                <path d="M 40 0 L 0 0 0 40" fill="none" stroke="white" stroke-width="1" stroke-opacity="0.1"/>
            </pattern>
        </defs>
        <rect width="1200" height="400" fill="url(#bg)" />
        <rect width="1200" height="400" fill="url(#grid)" />
        <circle cx="285" cy="141" r="62" fill="white" fill-opacity="0.08" /><circle cx="264" cy="97" r="162" fill="white" fill-opacity="0.09" /><circle cx="343" cy="284" r="199" fill="white" fill-opacity="0.1" /><circle cx="1044" cy="284" r="98" fill="white" fill-opacity="0.13" /><circle cx="546" cy="73" r="112" fill="white" fill-opacity="0.15" /><circle cx="507" cy="66" r="51" fill="white" fill-opacity="0.09" /><circle cx="719" cy="366" r="52" fill="white" fill-opacity="0.09" /><circle cx="952" cy="351" r="99" fill="white" fill-opacity="0.11" /><circle cx="1116" cy="195" r="161" fill="white" fill-opacity="0.08" /><circle cx="763" cy="28" r="98" fill="white" fill-opacity="0.09" />
        
        <!-- Big decorative icon on right -->
        <g transform="translate(850, -50) scale(20)" stroke="white" stroke-width="1.5" fill="none" stroke-opacity="0.2">
             <path d="M2 9a3 3 0 0 1 0 6v2a2 2 0 0 0 2 2h16a2 2 0 0 0 2-2v-2a3 3 0 0 1 0-6V7a2 2 0 0 0-2-2H4a2 2 0 0 0-2 2Z" />
        </g>
        
        <!-- Smaller focused icon on left-center -->
        <g transform="translate(100, 100) scale(8)" stroke="white" stroke-width="2" fill="none" filter="drop-shadow(3px 3px 2px rgba(0,0,0,0.3))">
             <path d="M2 9a3 3 0 0 1 0 6v2a2 2 0 0 0 2 2h16a2 2 0 0 0 2-2v-2a3 3 0 0 1 0-6V7a2 2 0 0 0-2-2H4a2 2 0 0 0-2 2Z" />
        </g>
    </svg>