<svg width="1200" height="400" viewBox="0 0 1200 400" xmlns="http://www.w3.org/2000/svg">
        <defs>
            <linearGradient id="bg" x1="0%" y1="0%" x2="100%" y2="0%">
                <stop offset="0%" style="stop-color:#334155;stop-opacity:1" />
                <stop offset="100%" style="stop-color:#64748b;stop-opacity:1" />
            </linearGradient>
            <pattern id="grid" width="40" height="40" patternUnits="userSpaceOnUse">
                <path d="M 40 0 L 0 0 0 40" fill="none" stroke="white" stroke-width="1" stroke-opacity="0.1"/>
            </pattern>
        </defs>
        <rect width="1200" height="400" fill="url(#bg)" />
        <rect width="1200" height="400" fill="url(#grid)" />
        <circle cx="54" cy="388" r="55" fill="white" fill-opacity="0.1" /><circle cx="593" cy="338" r="72" fill="white" fill-opacity="0.1" /><circle cx="1115" cy="154" r="94" fill="white" fill-opacity="0.1" /><circle cx="524" cy="311" r="82" fill="white" fill-opacity="0.06" /><circle cx="274" cy="17" r="81" fill="white" fill-opacity="0.05" /><circle cx="701" cy="23" r="119" fill="white" fill-opacity="0.05" /><circle cx="564" cy="123" r="93" fill="white" fill-opacity="0.1" /><circle cx="879" cy="4" r="129" fill="white" fill-opacity="0.06" /><circle cx="1174" cy="92" r="164" fill="white" fill-opacity="0.06" /><circle cx="364" cy="249" r="64" fill="white" fill-opacity="0.1" />
        
        <!-- Big decorative icon on right -->
        <g transform="translate(850, -50) scale(20)" stroke="white" stroke-width="1.5" fill="none" stroke-opacity="0.2">
             <path d="M19 4h-2V3a1 1 0 0 0-1-1H4a1 1 0 0 0-1 1v2H2a1 1 0 0 0-1 1v12a1 1 0 0 0 1 1h16a1 1 0 0 0 1-1V5a1 1 0 0 0-1-1zM4 3h12v1H4V3zm14 15H2V5h1v12a1 1 0 0 0 1 1h12v1zm0-1H4V5h12v12z" />
        </g>
        
        <!-- Smaller focused icon on left-center -->
        <g transform="translate(100, 100) scale(8)" stroke="white" stroke-width="2" fill="none" filter="drop-shadow(3px 3px 2px rgba(0,0,0,0.3))">
             <path d="M19 4h-2V3a1 1 0 0 0-1-1H4a1 1 0 0 0-1 1v2H2a1 1 0 0 0-1 1v12a1 1 0 0 0 1 1h16a1 1 0 0 0 1-1V5a1 1 0 0 0-1-1zM4 3h12v1H4V3zm14 15H2V5h1v12a1 1 0 0 0 1 1h12v1zm0-1H4V5h12v12z" />
        </g>
    </svg>