<svg width="1200" height="400" viewBox="0 0 1200 400" xmlns="http://www.w3.org/2000/svg">
        <defs>
            <linearGradient id="bg" x1="0%" y1="0%" x2="100%" y2="0%">
                <stop offset="0%" style="stop-color:#1d4ed8;stop-opacity:1" />
                <stop offset="100%" style="stop-color:#3b82f6;stop-opacity:1" />
            </linearGradient>
            <pattern id="grid" width="40" height="40" patternUnits="userSpaceOnUse">
                <path d="M 40 0 L 0 0 0 40" fill="none" stroke="white" stroke-width="1" stroke-opacity="0.1"/>
            </pattern>
        </defs>
        <rect width="1200" height="400" fill="url(#bg)" />
        <rect width="1200" height="400" fill="url(#grid)" />
        <circle cx="381" cy="80" r="72" fill="white" fill-opacity="0.05" /><circle cx="906" cy="8" r="87" fill="white" fill-opacity="0.14" /><circle cx="327" cy="160" r="89" fill="white" fill-opacity="0.07" /><circle cx="326" cy="265" r="147" fill="white" fill-opacity="0.05" /><circle cx="1088" cy="143" r="172" fill="white" fill-opacity="0.07" /><circle cx="132" cy="61" r="57" fill="white" fill-opacity="0.05" /><circle cx="971" cy="189" r="134" fill="white" fill-opacity="0.06" /><circle cx="178" cy="23" r="164" fill="white" fill-opacity="0.12" /><circle cx="960" cy="147" r="139" fill="white" fill-opacity="0.12" /><circle cx="253" cy="8" r="140" fill="white" fill-opacity="0.06" />
        
        <!-- Big decorative icon on right -->
        <g transform="translate(850, -50) scale(20)" stroke="white" stroke-width="1.5" fill="none" stroke-opacity="0.2">
             <path d="M12 20a8 8 0 0 1-8-8c0-4.4 3.6-8 8-8 2.5 0 4.8 1.2 6.2 3.1a8 8 0 0 1 1.8 4.9" />
        </g>
        
        <!-- Smaller focused icon on left-center -->
        <g transform="translate(100, 100) scale(8)" stroke="white" stroke-width="2" fill="none" filter="drop-shadow(3px 3px 2px rgba(0,0,0,0.3))">
             <path d="M12 20a8 8 0 0 1-8-8c0-4.4 3.6-8 8-8 2.5 0 4.8 1.2 6.2 3.1a8 8 0 0 1 1.8 4.9" />
        </g>
    </svg>