<svg width="1200" height="400" viewBox="0 0 1200 400" xmlns="http://www.w3.org/2000/svg">
        <defs>
            <linearGradient id="bg" x1="0%" y1="0%" x2="100%" y2="0%">
                <stop offset="0%" style="stop-color:#6d28d9;stop-opacity:1" />
                <stop offset="100%" style="stop-color:#8b5cf6;stop-opacity:1" />
            </linearGradient>
            <pattern id="grid" width="40" height="40" patternUnits="userSpaceOnUse">
                <path d="M 40 0 L 0 0 0 40" fill="none" stroke="white" stroke-width="1" stroke-opacity="0.1"/>
            </pattern>
        </defs>
        <rect width="1200" height="400" fill="url(#bg)" />
        <rect width="1200" height="400" fill="url(#grid)" />
        <circle cx="1158" cy="198" r="167" fill="white" fill-opacity="0.15" /><circle cx="137" cy="87" r="152" fill="white" fill-opacity="0.06" /><circle cx="1193" cy="43" r="136" fill="white" fill-opacity="0.08" /><circle cx="1067" cy="244" r="175" fill="white" fill-opacity="0.07" /><circle cx="198" cy="107" r="103" fill="white" fill-opacity="0.05" /><circle cx="598" cy="386" r="59" fill="white" fill-opacity="0.07" /><circle cx="16" cy="251" r="171" fill="white" fill-opacity="0.06" /><circle cx="339" cy="129" r="162" fill="white" fill-opacity="0.1" /><circle cx="1137" cy="396" r="127" fill="white" fill-opacity="0.15" /><circle cx="682" cy="181" r="126" fill="white" fill-opacity="0.08" />
        
        <!-- Big decorative icon on right -->
        <g transform="translate(850, -50) scale(20)" stroke="white" stroke-width="1.5" fill="none" stroke-opacity="0.2">
             <path d="M12 2a9.96 9.96 0 0 0-9.95 9 10 10 0 1 0 11-9 10.16 10.16 0 0 0-1.05 0z M5.5 12a1.5 1.5 0 1 1 0-3 1.5 1.5 0 0 1 0 3z M8 15a1.5 1.5 0 1 1 0-3 1.5 1.5 0 0 1 0 3z M12 18a1.5 1.5 0 1 1 0-3 1.5 1.5 0 0 1 0 3z M16 14a1.5 1.5 0 1 1 0-3 1.5 1.5 0 0 1 0 3z" />
        </g>
        
        <!-- Smaller focused icon on left-center -->
        <g transform="translate(100, 100) scale(8)" stroke="white" stroke-width="2" fill="none" filter="drop-shadow(3px 3px 2px rgba(0,0,0,0.3))">
             <path d="M12 2a9.96 9.96 0 0 0-9.95 9 10 10 0 1 0 11-9 10.16 10.16 0 0 0-1.05 0z M5.5 12a1.5 1.5 0 1 1 0-3 1.5 1.5 0 0 1 0 3z M8 15a1.5 1.5 0 1 1 0-3 1.5 1.5 0 0 1 0 3z M12 18a1.5 1.5 0 1 1 0-3 1.5 1.5 0 0 1 0 3z M16 14a1.5 1.5 0 1 1 0-3 1.5 1.5 0 0 1 0 3z" />
        </g>
    </svg>