<svg width="512" height="512" viewBox="0 0 512 512" xmlns="http://www.w3.org/2000/svg">
        <defs>
            <linearGradient id="g" x1="0%" y1="0%" x2="100%" y2="100%">
                <stop offset="0%" style="stop-color:#8b5cf6;stop-opacity:1" />
                <stop offset="100%" style="stop-color:#6d28d9;stop-opacity:1" />
            </linearGradient>
            <filter id="shadow" x="-20%" y="-20%" width="140%" height="140%">
                <feDropShadow dx="2" dy="2" stdDeviation="2" flood-color="#000000" flood-opacity="0.2"/>
            </filter>
        </defs>
        <rect x="0" y="0" width="512" height="512" rx="128" fill="url(#g)" />
        <g transform="translate(106, 106) scale(12.5)" stroke="#FFFFFF" stroke-width="2" fill="none" stroke-linecap="round" stroke-linejoin="round" filter="url(#shadow)">
            <path d="M12 2a9.96 9.96 0 0 0-9.95 9 10 10 0 1 0 11-9 10.16 10.16 0 0 0-1.05 0z M5.5 12a1.5 1.5 0 1 1 0-3 1.5 1.5 0 0 1 0 3z M8 15a1.5 1.5 0 1 1 0-3 1.5 1.5 0 0 1 0 3z M12 18a1.5 1.5 0 1 1 0-3 1.5 1.5 0 0 1 0 3z M16 14a1.5 1.5 0 1 1 0-3 1.5 1.5 0 0 1 0 3z" />
        </g>
    </svg>