<svg xmlns="http://www.w3.org/2000/svg" viewBox="0 0 400 100" fill="none">
  <defs>
    <linearGradient id="neo-gradient" x1="0%" y1="0%" x2="100%" y2="100%">
      <stop offset="0%" style="stop-color:#00E599"/>
      <stop offset="50%" style="stop-color:#00D9FF"/>
      <stop offset="100%" style="stop-color:#00E599"/>
    </linearGradient>
    <linearGradient id="shield-gradient" x1="0%" y1="0%" x2="100%" y2="100%">
      <stop offset="0%" style="stop-color:#00E599"/>
      <stop offset="100%" style="stop-color:#00B377"/>
    </linearGradient>
  </defs>

  <!-- Background -->
  <rect width="400" height="100" rx="12" fill="#0D1117"/>

  <!-- Neo Shield Icon -->
  <path d="M30 20l20 10v25c0 15-10 25-20 30-10-5-20-15-20-30V30l20-10z"
        fill="url(#shield-gradient)" transform="translate(15, 10)"/>
  <path d="M30 28l12 6v18c0 10-6 17-12 20-6-3-12-10-12-20V34l12-6z"
        fill="#0D1117" transform="translate(15, 10)"/>
  <text x="45" y="58" font-size="18" fill="#00E599" font-weight="bold"
        font-family="system-ui, -apple-system, sans-serif">N</text>

  <!-- Service Layer Text -->
  <text x="95" y="45" font-size="28" fill="#FFFFFF" font-weight="bold"
        font-family="system-ui, -apple-system, sans-serif">Neo Service Layer</text>

  <!-- Tagline -->
  <text x="95" y="70" font-size="14" fill="#8B949E"
        font-family="system-ui, -apple-system, sans-serif">TEE-Powered MiniApp Platform for Neo N3</text>

  <!-- Decorative Elements -->
  <circle cx="360" cy="30" r="4" fill="#00E599" opacity="0.8"/>
  <circle cx="375" cy="45" r="3" fill="#00D9FF" opacity="0.6"/>
  <circle cx="355" cy="55" r="2" fill="#00E599" opacity="0.4"/>
</svg>
