<svg width="1200" height="400" viewBox="0 0 1200 400" xmlns="http://www.w3.org/2000/svg">
        <defs>
            <linearGradient id="bg" x1="0%" y1="0%" x2="100%" y2="0%">
                <stop offset="0%" style="stop-color:#be185d;stop-opacity:1" />
                <stop offset="100%" style="stop-color:#ec4899;stop-opacity:1" />
            </linearGradient>
            <pattern id="grid" width="40" height="40" patternUnits="userSpaceOnUse">
                <path d="M 40 0 L 0 0 0 40" fill="none" stroke="white" stroke-width="1" stroke-opacity="0.1"/>
            </pattern>
        </defs>
        <rect width="1200" height="400" fill="url(#bg)" />
        <rect width="1200" height="400" fill="url(#grid)" />
        <circle cx="286" cy="21" r="83" fill="white" fill-opacity="0.15" /><circle cx="172" cy="389" r="153" fill="white" fill-opacity="0.13" /><circle cx="502" cy="36" r="192" fill="white" fill-opacity="0.06" /><circle cx="767" cy="127" r="141" fill="white" fill-opacity="0.13" /><circle cx="1102" cy="244" r="175" fill="white" fill-opacity="0.12" /><circle cx="543" cy="264" r="127" fill="white" fill-opacity="0.13" /><circle cx="90" cy="67" r="73" fill="white" fill-opacity="0.11" /><circle cx="256" cy="265" r="138" fill="white" fill-opacity="0.09" /><circle cx="15" cy="308" r="59" fill="white" fill-opacity="0.11" /><circle cx="818" cy="61" r="176" fill="white" fill-opacity="0.05" />
        
        <!-- Big decorative icon on right -->
        <g transform="translate(850, -50) scale(20)" stroke="white" stroke-width="1.5" fill="none" stroke-opacity="0.2">
             <path d="M19 14c1.49-1.46 3-3.21 3-5.5A5.5 5.5 0 0 0 16.5 3c-1.76 0-3 .5-4.5 2-1.5-1.5-2.74-2-4.5-2A5.5 5.5 0 0 0 2 8.5c0 2.3 1.5 4.05 3 5.5l7 7Z" />
        </g>
        
        <!-- Smaller focused icon on left-center -->
        <g transform="translate(100, 100) scale(8)" stroke="white" stroke-width="2" fill="none" filter="drop-shadow(3px 3px 2px rgba(0,0,0,0.3))">
             <path d="M19 14c1.49-1.46 3-3.21 3-5.5A5.5 5.5 0 0 0 16.5 3c-1.76 0-3 .5-4.5 2-1.5-1.5-2.74-2-4.5-2A5.5 5.5 0 0 0 2 8.5c0 2.3 1.5 4.05 3 5.5l7 7Z" />
        </g>
    </svg>