<svg xmlns="http://www.w3.org/2000/svg" viewBox="0 0 64 64" fill="none">
  <defs>
    <linearGradient id="ai-soul-bg" x1="0%" y1="0%" x2="100%" y2="100%">
      <stop offset="0%" style="stop-color:#FF6B9D"/>
      <stop offset="100%" style="stop-color:#C44569"/>
    </linearGradient>
    <linearGradient id="ai-soul-heart" x1="0%" y1="0%" x2="100%" y2="100%">
      <stop offset="0%" style="stop-color:#FFE0E9"/>
      <stop offset="100%" style="stop-color:#FF8FAB"/>
    </linearGradient>
  </defs>
  <rect width="64" height="64" rx="12" fill="url(#ai-soul-bg)"/>
  <path d="M32 52c-1.5 0-2.8-.6-3.8-1.5C20 43 14 36.5 14 29c0-5.5 4.5-10 10-10 3 0 5.8 1.3 8 3.5 2.2-2.2 5-3.5 8-3.5 5.5 0 10 4.5 10 10 0 7.5-6 14-14.2 21.5-1 .9-2.3 1.5-3.8 1.5z" fill="url(#ai-soul-heart)"/>
  <circle cx="26" cy="28" r="2" fill="#C44569"/>
  <circle cx="38" cy="28" r="2" fill="#C44569"/>
  <path d="M28 34c0 0 2 3 4 3s4-3 4-3" stroke="#C44569" stroke-width="2" stroke-linecap="round"/>
  <circle cx="48" cy="16" r="6" fill="#FFE0E9" opacity="0.8"/>
  <path d="M46 16h4M48 14v4" stroke="#C44569" stroke-width="1.5" stroke-linecap="round"/>
</svg>
