<svg width="1200" height="400" viewBox="0 0 1200 400" xmlns="http://www.w3.org/2000/svg">
        <defs>
            <linearGradient id="bg" x1="0%" y1="0%" x2="100%" y2="0%">
                <stop offset="0%" style="stop-color:#00B377;stop-opacity:1" />
                <stop offset="100%" style="stop-color:#00E599;stop-opacity:1" />
            </linearGradient>
            <pattern id="grid" width="40" height="40" patternUnits="userSpaceOnUse">
                <path d="M 40 0 L 0 0 0 40" fill="none" stroke="white" stroke-width="1" stroke-opacity="0.1"/>
            </pattern>
        </defs>
        <rect width="1200" height="400" fill="url(#bg)" />
        <rect width="1200" height="400" fill="url(#grid)" />
        <circle cx="220" cy="141" r="183" fill="white" fill-opacity="0.07" /><circle cx="256" cy="396" r="69" fill="white" fill-opacity="0.07" /><circle cx="413" cy="329" r="191" fill="white" fill-opacity="0.08" /><circle cx="432" cy="180" r="84" fill="white" fill-opacity="0.07" /><circle cx="561" cy="286" r="64" fill="white" fill-opacity="0.06" /><circle cx="143" cy="153" r="143" fill="white" fill-opacity="0.06" /><circle cx="913" cy="110" r="163" fill="white" fill-opacity="0.15" /><circle cx="1179" cy="67" r="84" fill="white" fill-opacity="0.13" /><circle cx="602" cy="135" r="189" fill="white" fill-opacity="0.13" /><circle cx="682" cy="84" r="142" fill="white" fill-opacity="0.14" />
        
        <!-- Big decorative icon on right -->
        <g transform="translate(850, -50) scale(20)" stroke="white" stroke-width="1.5" fill="none" stroke-opacity="0.2">
             <path d="M4 4h16c1.1 0 2 .9 2 2v12c0 1.1-.9 2-2 2H4c-1.1 0-2-.9-2-2V6c0-1.1.9-2 2-2zM8 8h.01M16 8h.01M8 12h.01M12 12h.01M16 12h.01M8 16h.01M16 16h.01" />
        </g>
        
        <!-- Smaller focused icon on left-center -->
        <g transform="translate(100, 100) scale(8)" stroke="white" stroke-width="2" fill="none" filter="drop-shadow(3px 3px 2px rgba(0,0,0,0.3))">
             <path d="M4 4h16c1.1 0 2 .9 2 2v12c0 1.1-.9 2-2 2H4c-1.1 0-2-.9-2-2V6c0-1.1.9-2 2-2zM8 8h.01M16 8h.01M8 12h.01M12 12h.01M16 12h.01M8 16h.01M16 16h.01" />
        </g>
    </svg>