<svg width="512" height="512" viewBox="0 0 512 512" xmlns="http://www.w3.org/2000/svg">
        <defs>
            <linearGradient id="g" x1="0%" y1="0%" x2="100%" y2="100%">
                <stop offset="0%" style="stop-color:#00E599;stop-opacity:1" />
                <stop offset="100%" style="stop-color:#00B377;stop-opacity:1" />
            </linearGradient>
            <filter id="shadow" x="-20%" y="-20%" width="140%" height="140%">
                <feDropShadow dx="2" dy="2" stdDeviation="2" flood-color="#000000" flood-opacity="0.2"/>
            </filter>
        </defs>
        <rect x="0" y="0" width="512" height="512" rx="128" fill="url(#g)" />
        <g transform="translate(106, 106) scale(12.5)" stroke="#FFFFFF" stroke-width="2" fill="none" stroke-linecap="round" stroke-linejoin="round" filter="url(#shadow)">
            <path d="M4 4h16c1.1 0 2 .9 2 2v12c0 1.1-.9 2-2 2H4c-1.1 0-2-.9-2-2V6c0-1.1.9-2 2-2zM8 8h.01M16 8h.01M8 12h.01M12 12h.01M16 12h.01M8 16h.01M16 16h.01" />
        </g>
    </svg>