<svg width="1200" height="400" viewBox="0 0 1200 400" xmlns="http://www.w3.org/2000/svg">
        <defs>
            <linearGradient id="bg" x1="0%" y1="0%" x2="100%" y2="0%">
                <stop offset="0%" style="stop-color:#be185d;stop-opacity:1" />
                <stop offset="100%" style="stop-color:#ec4899;stop-opacity:1" />
            </linearGradient>
            <pattern id="grid" width="40" height="40" patternUnits="userSpaceOnUse">
                <path d="M 40 0 L 0 0 0 40" fill="none" stroke="white" stroke-width="1" stroke-opacity="0.1"/>
            </pattern>
        </defs>
        <rect width="1200" height="400" fill="url(#bg)" />
        <rect width="1200" height="400" fill="url(#grid)" />
        <circle cx="983" cy="377" r="53" fill="white" fill-opacity="0.13" /><circle cx="700" cy="11" r="93" fill="white" fill-opacity="0.05" /><circle cx="380" cy="383" r="127" fill="white" fill-opacity="0.11" /><circle cx="240" cy="336" r="170" fill="white" fill-opacity="0.09" /><circle cx="479" cy="319" r="83" fill="white" fill-opacity="0.06" /><circle cx="1181" cy="345" r="110" fill="white" fill-opacity="0.06" /><circle cx="818" cy="391" r="156" fill="white" fill-opacity="0.13" /><circle cx="1116" cy="50" r="149" fill="white" fill-opacity="0.07" /><circle cx="970" cy="28" r="120" fill="white" fill-opacity="0.15" /><circle cx="984" cy="237" r="184" fill="white" fill-opacity="0.05" />
        
        <!-- Big decorative icon on right -->
        <g transform="translate(850, -50) scale(20)" stroke="white" stroke-width="1.5" fill="none" stroke-opacity="0.2">
             <path d="M4 4h16c1.1 0 2 .9 2 2v12c0 1.1-.9 2-2 2H4c-1.1 0-2-.9-2-2V6c0-1.1.9-2 2-2z M22 6l-10 7L2 6" />
        </g>
        
        <!-- Smaller focused icon on left-center -->
        <g transform="translate(100, 100) scale(8)" stroke="white" stroke-width="2" fill="none" filter="drop-shadow(3px 3px 2px rgba(0,0,0,0.3))">
             <path d="M4 4h16c1.1 0 2 .9 2 2v12c0 1.1-.9 2-2 2H4c-1.1 0-2-.9-2-2V6c0-1.1.9-2 2-2z M22 6l-10 7L2 6" />
        </g>
    </svg>