<svg width="1200" height="400" viewBox="0 0 1200 400" xmlns="http://www.w3.org/2000/svg">
        <defs>
            <linearGradient id="bg" x1="0%" y1="0%" x2="100%" y2="0%">
                <stop offset="0%" style="stop-color:#334155;stop-opacity:1" />
                <stop offset="100%" style="stop-color:#64748b;stop-opacity:1" />
            </linearGradient>
            <pattern id="grid" width="40" height="40" patternUnits="userSpaceOnUse">
                <path d="M 40 0 L 0 0 0 40" fill="none" stroke="white" stroke-width="1" stroke-opacity="0.1"/>
            </pattern>
        </defs>
        <rect width="1200" height="400" fill="url(#bg)" />
        <rect width="1200" height="400" fill="url(#grid)" />
        <circle cx="431" cy="298" r="136" fill="white" fill-opacity="0.12" /><circle cx="1195" cy="313" r="126" fill="white" fill-opacity="0.05" /><circle cx="441" cy="61" r="132" fill="white" fill-opacity="0.14" /><circle cx="582" cy="204" r="128" fill="white" fill-opacity="0.08" /><circle cx="1010" cy="147" r="147" fill="white" fill-opacity="0.14" /><circle cx="1121" cy="210" r="61" fill="white" fill-opacity="0.14" /><circle cx="329" cy="154" r="189" fill="white" fill-opacity="0.11" /><circle cx="1107" cy="215" r="122" fill="white" fill-opacity="0.07" /><circle cx="906" cy="325" r="146" fill="white" fill-opacity="0.12" /><circle cx="875" cy="324" r="122" fill="white" fill-opacity="0.15" />
        
        <!-- Big decorative icon on right -->
        <g transform="translate(850, -50) scale(20)" stroke="white" stroke-width="1.5" fill="none" stroke-opacity="0.2">
             <path d="M12 22s8-4 8-10V5l-8-3-8 3v7c0 6 8 10 8 10z" />
        </g>
        
        <!-- Smaller focused icon on left-center -->
        <g transform="translate(100, 100) scale(8)" stroke="white" stroke-width="2" fill="none" filter="drop-shadow(3px 3px 2px rgba(0,0,0,0.3))">
             <path d="M12 22s8-4 8-10V5l-8-3-8 3v7c0 6 8 10 8 10z" />
        </g>
    </svg>