<svg width="1200" height="400" viewBox="0 0 1200 400" xmlns="http://www.w3.org/2000/svg">
        <defs>
            <linearGradient id="bg" x1="0%" y1="0%" x2="100%" y2="0%">
                <stop offset="0%" style="stop-color:#334155;stop-opacity:1" />
                <stop offset="100%" style="stop-color:#64748b;stop-opacity:1" />
            </linearGradient>
            <pattern id="grid" width="40" height="40" patternUnits="userSpaceOnUse">
                <path d="M 40 0 L 0 0 0 40" fill="none" stroke="white" stroke-width="1" stroke-opacity="0.1"/>
            </pattern>
        </defs>
        <rect width="1200" height="400" fill="url(#bg)" />
        <rect width="1200" height="400" fill="url(#grid)" />
        <circle cx="1075" cy="226" r="136" fill="white" fill-opacity="0.11" /><circle cx="3" cy="158" r="102" fill="white" fill-opacity="0.13" /><circle cx="214" cy="12" r="89" fill="white" fill-opacity="0.1" /><circle cx="864" cy="24" r="151" fill="white" fill-opacity="0.11" /><circle cx="477" cy="162" r="188" fill="white" fill-opacity="0.06" /><circle cx="529" cy="23" r="166" fill="white" fill-opacity="0.12" /><circle cx="1166" cy="43" r="128" fill="white" fill-opacity="0.08" /><circle cx="674" cy="84" r="135" fill="white" fill-opacity="0.08" /><circle cx="243" cy="278" r="105" fill="white" fill-opacity="0.14" /><circle cx="716" cy="48" r="93" fill="white" fill-opacity="0.1" />
        
        <!-- Big decorative icon on right -->
        <g transform="translate(850, -50) scale(20)" stroke="white" stroke-width="1.5" fill="none" stroke-opacity="0.2">
             <path d="M17 10h-1V7A6 6 0 0 0 4 7v3H3a2 2 0 0 0-2 2v7a2 2 0 0 0 2 2h14a2 2 0 0 0 2-2v-7a2 2 0 0 0-2-2zm-6 0H7V7a3 3 0 0 1 6 0v3z" />
        </g>
        
        <!-- Smaller focused icon on left-center -->
        <g transform="translate(100, 100) scale(8)" stroke="white" stroke-width="2" fill="none" filter="drop-shadow(3px 3px 2px rgba(0,0,0,0.3))">
             <path d="M17 10h-1V7A6 6 0 0 0 4 7v3H3a2 2 0 0 0-2 2v7a2 2 0 0 0 2 2h14a2 2 0 0 0 2-2v-7a2 2 0 0 0-2-2zm-6 0H7V7a3 3 0 0 1 6 0v3z" />
        </g>
    </svg>