<svg width="1200" height="400" viewBox="0 0 1200 400" xmlns="http://www.w3.org/2000/svg">
        <defs>
            <linearGradient id="bg" x1="0%" y1="0%" x2="100%" y2="0%">
                <stop offset="0%" style="stop-color:#1d4ed8;stop-opacity:1" />
                <stop offset="100%" style="stop-color:#3b82f6;stop-opacity:1" />
            </linearGradient>
            <pattern id="grid" width="40" height="40" patternUnits="userSpaceOnUse">
                <path d="M 40 0 L 0 0 0 40" fill="none" stroke="white" stroke-width="1" stroke-opacity="0.1"/>
            </pattern>
        </defs>
        <rect width="1200" height="400" fill="url(#bg)" />
        <rect width="1200" height="400" fill="url(#grid)" />
        <circle cx="143" cy="392" r="62" fill="white" fill-opacity="0.1" /><circle cx="179" cy="33" r="68" fill="white" fill-opacity="0.08" /><circle cx="410" cy="280" r="84" fill="white" fill-opacity="0.12" /><circle cx="258" cy="63" r="190" fill="white" fill-opacity="0.14" /><circle cx="307" cy="219" r="119" fill="white" fill-opacity="0.11" /><circle cx="743" cy="399" r="193" fill="white" fill-opacity="0.1" /><circle cx="850" cy="82" r="81" fill="white" fill-opacity="0.13" /><circle cx="41" cy="399" r="142" fill="white" fill-opacity="0.14" /><circle cx="37" cy="92" r="59" fill="white" fill-opacity="0.11" /><circle cx="1071" cy="245" r="118" fill="white" fill-opacity="0.08" />
        
        <!-- Big decorative icon on right -->
        <g transform="translate(850, -50) scale(20)" stroke="white" stroke-width="1.5" fill="none" stroke-opacity="0.2">
             <path d="M19 12h-3v-3a1 1 0 0 0-2 0v3h-3a1 1 0 0 0 0 2h3v3a1 1 0 0 0 2 0v-3h3a1 1 0 0 0 0-2z M21 20c0 1.1-.9 2-2 2H5c-1.1 0-2-.9-2-2v-8c0-1.1.9-2 2-2h14c1.1 0 2 .9 2 2v8z M12 2C6.48 2 2 6.48 2 12s4.48 10 10 10 10-4.48 10-10S17.52 2 12 2z" />
        </g>
        
        <!-- Smaller focused icon on left-center -->
        <g transform="translate(100, 100) scale(8)" stroke="white" stroke-width="2" fill="none" filter="drop-shadow(3px 3px 2px rgba(0,0,0,0.3))">
             <path d="M19 12h-3v-3a1 1 0 0 0-2 0v3h-3a1 1 0 0 0 0 2h3v3a1 1 0 0 0 2 0v-3h3a1 1 0 0 0 0-2z M21 20c0 1.1-.9 2-2 2H5c-1.1 0-2-.9-2-2v-8c0-1.1.9-2 2-2h14c1.1 0 2 .9 2 2v8z M12 2C6.48 2 2 6.48 2 12s4.48 10 10 10 10-4.48 10-10S17.52 2 12 2z" />
        </g>
    </svg>