<svg width="512" height="512" viewBox="0 0 512 512" xmlns="http://www.w3.org/2000/svg">
        <defs>
            <linearGradient id="g" x1="0%" y1="0%" x2="100%" y2="100%">
                <stop offset="0%" style="stop-color:#3b82f6;stop-opacity:1" />
                <stop offset="100%" style="stop-color:#1d4ed8;stop-opacity:1" />
            </linearGradient>
            <filter id="shadow" x="-20%" y="-20%" width="140%" height="140%">
                <feDropShadow dx="2" dy="2" stdDeviation="2" flood-color="#000000" flood-opacity="0.2"/>
            </filter>
        </defs>
        <rect x="0" y="0" width="512" height="512" rx="128" fill="url(#g)" />
        <g transform="translate(106, 106) scale(12.5)" stroke="#FFFFFF" stroke-width="2" fill="none" stroke-linecap="round" stroke-linejoin="round" filter="url(#shadow)">
            <path d="M19 12h-3v-3a1 1 0 0 0-2 0v3h-3a1 1 0 0 0 0 2h3v3a1 1 0 0 0 2 0v-3h3a1 1 0 0 0 0-2z M21 20c0 1.1-.9 2-2 2H5c-1.1 0-2-.9-2-2v-8c0-1.1.9-2 2-2h14c1.1 0 2 .9 2 2v8z M12 2C6.48 2 2 6.48 2 12s4.48 10 10 10 10-4.48 10-10S17.52 2 12 2z" />
        </g>
    </svg>