<svg width="1200" height="400" viewBox="0 0 1200 400" xmlns="http://www.w3.org/2000/svg">
        <defs>
            <linearGradient id="bg" x1="0%" y1="0%" x2="100%" y2="0%">
                <stop offset="0%" style="stop-color:#1d4ed8;stop-opacity:1" />
                <stop offset="100%" style="stop-color:#3b82f6;stop-opacity:1" />
            </linearGradient>
            <pattern id="grid" width="40" height="40" patternUnits="userSpaceOnUse">
                <path d="M 40 0 L 0 0 0 40" fill="none" stroke="white" stroke-width="1" stroke-opacity="0.1"/>
            </pattern>
        </defs>
        <rect width="1200" height="400" fill="url(#bg)" />
        <rect width="1200" height="400" fill="url(#grid)" />
        <circle cx="872" cy="6" r="191" fill="white" fill-opacity="0.13" /><circle cx="679" cy="300" r="81" fill="white" fill-opacity="0.09" /><circle cx="24" cy="92" r="98" fill="white" fill-opacity="0.14" /><circle cx="162" cy="352" r="181" fill="white" fill-opacity="0.1" /><circle cx="136" cy="41" r="197" fill="white" fill-opacity="0.05" /><circle cx="918" cy="52" r="122" fill="white" fill-opacity="0.08" /><circle cx="1173" cy="266" r="181" fill="white" fill-opacity="0.06" /><circle cx="518" cy="27" r="164" fill="white" fill-opacity="0.14" /><circle cx="294" cy="277" r="157" fill="white" fill-opacity="0.1" /><circle cx="892" cy="226" r="140" fill="white" fill-opacity="0.11" />
        
        <!-- Big decorative icon on right -->
        <g transform="translate(850, -50) scale(20)" stroke="white" stroke-width="1.5" fill="none" stroke-opacity="0.2">
             <path d="M12 2.69l5.66 5.66a8 8 0 1 1-11.31 0z" />
        </g>
        
        <!-- Smaller focused icon on left-center -->
        <g transform="translate(100, 100) scale(8)" stroke="white" stroke-width="2" fill="none" filter="drop-shadow(3px 3px 2px rgba(0,0,0,0.3))">
             <path d="M12 2.69l5.66 5.66a8 8 0 1 1-11.31 0z" />
        </g>
    </svg>