<svg width="1200" height="400" viewBox="0 0 1200 400" xmlns="http://www.w3.org/2000/svg">
        <defs>
            <linearGradient id="bg" x1="0%" y1="0%" x2="100%" y2="0%">
                <stop offset="0%" style="stop-color:#1d4ed8;stop-opacity:1" />
                <stop offset="100%" style="stop-color:#3b82f6;stop-opacity:1" />
            </linearGradient>
            <pattern id="grid" width="40" height="40" patternUnits="userSpaceOnUse">
                <path d="M 40 0 L 0 0 0 40" fill="none" stroke="white" stroke-width="1" stroke-opacity="0.1"/>
            </pattern>
        </defs>
        <rect width="1200" height="400" fill="url(#bg)" />
        <rect width="1200" height="400" fill="url(#grid)" />
        <circle cx="118" cy="393" r="187" fill="white" fill-opacity="0.14" /><circle cx="1139" cy="99" r="184" fill="white" fill-opacity="0.11" /><circle cx="18" cy="301" r="159" fill="white" fill-opacity="0.06" /><circle cx="347" cy="62" r="100" fill="white" fill-opacity="0.13" /><circle cx="909" cy="55" r="198" fill="white" fill-opacity="0.06" /><circle cx="784" cy="67" r="101" fill="white" fill-opacity="0.12" /><circle cx="1192" cy="296" r="58" fill="white" fill-opacity="0.12" /><circle cx="835" cy="273" r="96" fill="white" fill-opacity="0.08" /><circle cx="1132" cy="153" r="146" fill="white" fill-opacity="0.05" /><circle cx="321" cy="185" r="80" fill="white" fill-opacity="0.06" />
        
        <!-- Big decorative icon on right -->
        <g transform="translate(850, -50) scale(20)" stroke="white" stroke-width="1.5" fill="none" stroke-opacity="0.2">
             <path d="M13 2L3 14h9l-1 8 10-12h-9l1-8z" />
        </g>
        
        <!-- Smaller focused icon on left-center -->
        <g transform="translate(100, 100) scale(8)" stroke="white" stroke-width="2" fill="none" filter="drop-shadow(3px 3px 2px rgba(0,0,0,0.3))">
             <path d="M13 2L3 14h9l-1 8 10-12h-9l1-8z" />
        </g>
    </svg>