<svg width="1200" height="400" viewBox="0 0 1200 400" xmlns="http://www.w3.org/2000/svg">
        <defs>
            <linearGradient id="bg" x1="0%" y1="0%" x2="100%" y2="0%">
                <stop offset="0%" style="stop-color:#6d28d9;stop-opacity:1" />
                <stop offset="100%" style="stop-color:#8b5cf6;stop-opacity:1" />
            </linearGradient>
            <pattern id="grid" width="40" height="40" patternUnits="userSpaceOnUse">
                <path d="M 40 0 L 0 0 0 40" fill="none" stroke="white" stroke-width="1" stroke-opacity="0.1"/>
            </pattern>
        </defs>
        <rect width="1200" height="400" fill="url(#bg)" />
        <rect width="1200" height="400" fill="url(#grid)" />
        <circle cx="79" cy="353" r="51" fill="white" fill-opacity="0.07" /><circle cx="684" cy="397" r="131" fill="white" fill-opacity="0.07" /><circle cx="789" cy="144" r="60" fill="white" fill-opacity="0.05" /><circle cx="497" cy="367" r="152" fill="white" fill-opacity="0.14" /><circle cx="1032" cy="238" r="113" fill="white" fill-opacity="0.13" /><circle cx="1121" cy="119" r="85" fill="white" fill-opacity="0.07" /><circle cx="1133" cy="219" r="93" fill="white" fill-opacity="0.07" /><circle cx="328" cy="300" r="166" fill="white" fill-opacity="0.07" /><circle cx="1039" cy="199" r="102" fill="white" fill-opacity="0.08" /><circle cx="873" cy="23" r="71" fill="white" fill-opacity="0.09" />
        
        <!-- Big decorative icon on right -->
        <g transform="translate(850, -50) scale(20)" stroke="white" stroke-width="1.5" fill="none" stroke-opacity="0.2">
             <path d="M16.5 2h-6c-1.1 0-2 .9-2 2v16c0 1.1.9 2 2 2h6c1.1 0 2-.9 2-2V4c0-1.1-.9-2-2-2zM4.5 5h-2c-.55 0-1 .45-1 1v14c0 1.1.9 2 2 2h6c.55 0 1-.45 1-1v-2h-3c-1.66 0-3-1.34-3-3V5z" />
        </g>
        
        <!-- Smaller focused icon on left-center -->
        <g transform="translate(100, 100) scale(8)" stroke="white" stroke-width="2" fill="none" filter="drop-shadow(3px 3px 2px rgba(0,0,0,0.3))">
             <path d="M16.5 2h-6c-1.1 0-2 .9-2 2v16c0 1.1.9 2 2 2h6c1.1 0 2-.9 2-2V4c0-1.1-.9-2-2-2zM4.5 5h-2c-.55 0-1 .45-1 1v14c0 1.1.9 2 2 2h6c.55 0 1-.45 1-1v-2h-3c-1.66 0-3-1.34-3-3V5z" />
        </g>
    </svg>