<svg width="1200" height="400" viewBox="0 0 1200 400" xmlns="http://www.w3.org/2000/svg">
        <defs>
            <linearGradient id="bg" x1="0%" y1="0%" x2="100%" y2="0%">
                <stop offset="0%" style="stop-color:#334155;stop-opacity:1" />
                <stop offset="100%" style="stop-color:#64748b;stop-opacity:1" />
            </linearGradient>
            <pattern id="grid" width="40" height="40" patternUnits="userSpaceOnUse">
                <path d="M 40 0 L 0 0 0 40" fill="none" stroke="white" stroke-width="1" stroke-opacity="0.1"/>
            </pattern>
        </defs>
        <rect width="1200" height="400" fill="url(#bg)" />
        <rect width="1200" height="400" fill="url(#grid)" />
        <circle cx="621" cy="104" r="99" fill="white" fill-opacity="0.15" /><circle cx="183" cy="218" r="130" fill="white" fill-opacity="0.15" /><circle cx="105" cy="391" r="133" fill="white" fill-opacity="0.11" /><circle cx="422" cy="143" r="139" fill="white" fill-opacity="0.05" /><circle cx="798" cy="193" r="135" fill="white" fill-opacity="0.05" /><circle cx="233" cy="126" r="118" fill="white" fill-opacity="0.06" /><circle cx="795" cy="360" r="140" fill="white" fill-opacity="0.06" /><circle cx="471" cy="380" r="61" fill="white" fill-opacity="0.08" /><circle cx="87" cy="317" r="172" fill="white" fill-opacity="0.14" /><circle cx="743" cy="44" r="99" fill="white" fill-opacity="0.15" />
        
        <!-- Big decorative icon on right -->
        <g transform="translate(850, -50) scale(20)" stroke="white" stroke-width="1.5" fill="none" stroke-opacity="0.2">
             <path d="M2 12h20 M12 2a15.3 15.3 0 0 1 4 10 15.3 15.3 0 0 1-4 10 15.3 15.3 0 0 1-4-10 15.3 15.3 0 0 1 4-10z M2 12a10 10 0 1 1 20 0 10 10 0 0 1-20 0z" />
        </g>
        
        <!-- Smaller focused icon on left-center -->
        <g transform="translate(100, 100) scale(8)" stroke="white" stroke-width="2" fill="none" filter="drop-shadow(3px 3px 2px rgba(0,0,0,0.3))">
             <path d="M2 12h20 M12 2a15.3 15.3 0 0 1 4 10 15.3 15.3 0 0 1-4 10 15.3 15.3 0 0 1-4-10 15.3 15.3 0 0 1 4-10z M2 12a10 10 0 1 1 20 0 10 10 0 0 1-20 0z" />
        </g>
    </svg>