<svg width="512" height="512" viewBox="0 0 512 512" xmlns="http://www.w3.org/2000/svg">
  <defs>
    <linearGradient id="g" x1="0%" y1="0%" x2="100%" y2="100%">
      <stop offset="0%" style="stop-color:#9f9df3;stop-opacity:1" />
      <stop offset="100%" style="stop-color:#f7aac7;stop-opacity:1" />
    </linearGradient>
    <filter id="shadow" x="-20%" y="-20%" width="140%" height="140%">
      <feDropShadow dx="2" dy="2" stdDeviation="2" flood-color="#000000" flood-opacity="0.2" />
    </filter>
  </defs>
  <circle cx="256" cy="256" r="256" fill="url(#g)" />
  <g
    transform="translate(106, 106) scale(12.5)"
    stroke="#FFFFFF"
    stroke-width="2"
    fill="none"
    stroke-linecap="round"
    stroke-linejoin="round"
    filter="url(#shadow)"
  >
    <path d="M6 9H4.5a2.5 2.5 0 0 1 0-5H6" />
    <path d="M18 9h1.5a2.5 2.5 0 0 0 0-5H18" />
    <path d="M4 22h16" />
    <path d="M10 14.66V17c0 .55-.47.98-.97 1.21C7.85 18.75 7 20.24 7 22" />
    <path d="M14 14.66V17c0 .55.47.98.97 1.21C16.15 18.75 17 20.24 17 22" />
    <path d="M18 2h-6c-1.1 0-2 .9-2 2v6a2 2 0 0 0 2 2h8a2 2 0 0 0 2-2V4a2 2 0 0 0-2-2h-2z" />
  </g>
</svg>
