<svg width="1200" height="400" viewBox="0 0 1200 400" xmlns="http://www.w3.org/2000/svg">
        <defs>
            <linearGradient id="bg" x1="0%" y1="0%" x2="100%" y2="0%">
                <stop offset="0%" style="stop-color:#b45309;stop-opacity:1" />
                <stop offset="100%" style="stop-color:#f59e0b;stop-opacity:1" />
            </linearGradient>
            <pattern id="grid" width="40" height="40" patternUnits="userSpaceOnUse">
                <path d="M 40 0 L 0 0 0 40" fill="none" stroke="white" stroke-width="1" stroke-opacity="0.1"/>
            </pattern>
        </defs>
        <rect width="1200" height="400" fill="url(#bg)" />
        <rect width="1200" height="400" fill="url(#grid)" />
        <circle cx="813" cy="34" r="181" fill="white" fill-opacity="0.11" /><circle cx="368" cy="382" r="99" fill="white" fill-opacity="0.05" /><circle cx="631" cy="118" r="142" fill="white" fill-opacity="0.09" /><circle cx="118" cy="246" r="143" fill="white" fill-opacity="0.12" /><circle cx="1173" cy="383" r="65" fill="white" fill-opacity="0.15" /><circle cx="1108" cy="304" r="180" fill="white" fill-opacity="0.11" /><circle cx="712" cy="34" r="69" fill="white" fill-opacity="0.09" /><circle cx="614" cy="139" r="124" fill="white" fill-opacity="0.07" /><circle cx="125" cy="377" r="57" fill="white" fill-opacity="0.11" /><circle cx="1134" cy="42" r="118" fill="white" fill-opacity="0.11" />
        
        <!-- Big decorative icon on right -->
        <g transform="translate(850, -50) scale(20)" stroke="white" stroke-width="1.5" fill="none" stroke-opacity="0.2">
             <path d="M21 16V8a2 2 0 0 0-1-1.73l-7-4a2 2 0 0 0-2 0l-7 4A2 2 0 0 0 3 8v8a2 2 0 0 0 1 1.73l7 4a2 2 0 0 0 2 0l7-4A2 2 0 0 0 21 16z M7.5 8l4.5 2.5L16.5 8" />
        </g>
        
        <!-- Smaller focused icon on left-center -->
        <g transform="translate(100, 100) scale(8)" stroke="white" stroke-width="2" fill="none" filter="drop-shadow(3px 3px 2px rgba(0,0,0,0.3))">
             <path d="M21 16V8a2 2 0 0 0-1-1.73l-7-4a2 2 0 0 0-2 0l-7 4A2 2 0 0 0 3 8v8a2 2 0 0 0 1 1.73l7 4a2 2 0 0 0 2 0l7-4A2 2 0 0 0 21 16z M7.5 8l4.5 2.5L16.5 8" />
        </g>
    </svg>