<svg width="1200" height="400" viewBox="0 0 1200 400" xmlns="http://www.w3.org/2000/svg">
        <defs>
            <linearGradient id="bg" x1="0%" y1="0%" x2="100%" y2="0%">
                <stop offset="0%" style="stop-color:#b45309;stop-opacity:1" />
                <stop offset="100%" style="stop-color:#f59e0b;stop-opacity:1" />
            </linearGradient>
            <pattern id="grid" width="40" height="40" patternUnits="userSpaceOnUse">
                <path d="M 40 0 L 0 0 0 40" fill="none" stroke="white" stroke-width="1" stroke-opacity="0.1"/>
            </pattern>
        </defs>
        <rect width="1200" height="400" fill="url(#bg)" />
        <rect width="1200" height="400" fill="url(#grid)" />
        <circle cx="706" cy="77" r="102" fill="white" fill-opacity="0.1" /><circle cx="173" cy="248" r="134" fill="white" fill-opacity="0.15" /><circle cx="452" cy="191" r="169" fill="white" fill-opacity="0.1" /><circle cx="642" cy="72" r="101" fill="white" fill-opacity="0.13" /><circle cx="986" cy="164" r="100" fill="white" fill-opacity="0.13" /><circle cx="20" cy="165" r="59" fill="white" fill-opacity="0.14" /><circle cx="1006" cy="50" r="163" fill="white" fill-opacity="0.13" /><circle cx="369" cy="258" r="150" fill="white" fill-opacity="0.12" /><circle cx="127" cy="246" r="87" fill="white" fill-opacity="0.15" /><circle cx="504" cy="291" r="88" fill="white" fill-opacity="0.12" />
        
        <!-- Big decorative icon on right -->
        <g transform="translate(850, -50) scale(20)" stroke="white" stroke-width="1.5" fill="none" stroke-opacity="0.2">
             <path d="M3 21h18 M5 21V7l8-4 8 4v14 M8 21v-8a2 2 0 0 1 2-2h4a2 2 0 0 1 2 2v8" />
        </g>
        
        <!-- Smaller focused icon on left-center -->
        <g transform="translate(100, 100) scale(8)" stroke="white" stroke-width="2" fill="none" filter="drop-shadow(3px 3px 2px rgba(0,0,0,0.3))">
             <path d="M3 21h18 M5 21V7l8-4 8 4v14 M8 21v-8a2 2 0 0 1 2-2h4a2 2 0 0 1 2 2v8" />
        </g>
    </svg>