<svg width="1200" height="400" viewBox="0 0 1200 400" xmlns="http://www.w3.org/2000/svg">
        <defs>
            <linearGradient id="bg" x1="0%" y1="0%" x2="100%" y2="0%">
                <stop offset="0%" style="stop-color:#6d28d9;stop-opacity:1" />
                <stop offset="100%" style="stop-color:#8b5cf6;stop-opacity:1" />
            </linearGradient>
            <pattern id="grid" width="40" height="40" patternUnits="userSpaceOnUse">
                <path d="M 40 0 L 0 0 0 40" fill="none" stroke="white" stroke-width="1" stroke-opacity="0.1"/>
            </pattern>
        </defs>
        <rect width="1200" height="400" fill="url(#bg)" />
        <rect width="1200" height="400" fill="url(#grid)" />
        <circle cx="139" cy="213" r="165" fill="white" fill-opacity="0.13" /><circle cx="264" cy="93" r="116" fill="white" fill-opacity="0.05" /><circle cx="1138" cy="150" r="97" fill="white" fill-opacity="0.05" /><circle cx="1180" cy="324" r="142" fill="white" fill-opacity="0.14" /><circle cx="777" cy="110" r="66" fill="white" fill-opacity="0.1" /><circle cx="1073" cy="201" r="74" fill="white" fill-opacity="0.05" /><circle cx="136" cy="128" r="193" fill="white" fill-opacity="0.06" /><circle cx="38" cy="118" r="133" fill="white" fill-opacity="0.11" /><circle cx="582" cy="163" r="74" fill="white" fill-opacity="0.09" /><circle cx="442" cy="128" r="151" fill="white" fill-opacity="0.12" />
        
        <!-- Big decorative icon on right -->
        <g transform="translate(850, -50) scale(20)" stroke="white" stroke-width="1.5" fill="none" stroke-opacity="0.2">
             <path d="M5 2h14 M5 22h14 M6 2v6l4 4-4 4v6 M18 2v6l-4 4 4 4v6" />
        </g>
        
        <!-- Smaller focused icon on left-center -->
        <g transform="translate(100, 100) scale(8)" stroke="white" stroke-width="2" fill="none" filter="drop-shadow(3px 3px 2px rgba(0,0,0,0.3))">
             <path d="M5 2h14 M5 22h14 M6 2v6l4 4-4 4v6 M18 2v6l-4 4 4 4v6" />
        </g>
    </svg>