<svg width="1200" height="400" viewBox="0 0 1200 400" xmlns="http://www.w3.org/2000/svg">
        <defs>
            <linearGradient id="bg" x1="0%" y1="0%" x2="100%" y2="0%">
                <stop offset="0%" style="stop-color:#00B377;stop-opacity:1" />
                <stop offset="100%" style="stop-color:#00E599;stop-opacity:1" />
            </linearGradient>
            <pattern id="grid" width="40" height="40" patternUnits="userSpaceOnUse">
                <path d="M 40 0 L 0 0 0 40" fill="none" stroke="white" stroke-width="1" stroke-opacity="0.1"/>
            </pattern>
        </defs>
        <rect width="1200" height="400" fill="url(#bg)" />
        <rect width="1200" height="400" fill="url(#grid)" />
        <circle cx="1131" cy="29" r="151" fill="white" fill-opacity="0.15" /><circle cx="297" cy="246" r="85" fill="white" fill-opacity="0.11" /><circle cx="943" cy="384" r="63" fill="white" fill-opacity="0.05" /><circle cx="1082" cy="225" r="196" fill="white" fill-opacity="0.15" /><circle cx="527" cy="373" r="170" fill="white" fill-opacity="0.08" /><circle cx="1003" cy="218" r="174" fill="white" fill-opacity="0.15" /><circle cx="905" cy="235" r="115" fill="white" fill-opacity="0.1" /><circle cx="747" cy="281" r="63" fill="white" fill-opacity="0.11" /><circle cx="1029" cy="71" r="172" fill="white" fill-opacity="0.15" /><circle cx="3" cy="183" r="158" fill="white" fill-opacity="0.05" />
        
        <!-- Big decorative icon on right -->
        <g transform="translate(850, -50) scale(20)" stroke="white" stroke-width="1.5" fill="none" stroke-opacity="0.2">
             <path d="M21 2l-2 2m-7.61 7.61a5.5 5.5 0 1 1-7.778 7.778 5.5 5.5 0 0 1 7.777-7.777zm0 0L15.5 7.5m0 0l3 3L22 7l-3-3m-3.5 3.5L19 4" />
        </g>
        
        <!-- Smaller focused icon on left-center -->
        <g transform="translate(100, 100) scale(8)" stroke="white" stroke-width="2" fill="none" filter="drop-shadow(3px 3px 2px rgba(0,0,0,0.3))">
             <path d="M21 2l-2 2m-7.61 7.61a5.5 5.5 0 1 1-7.778 7.778 5.5 5.5 0 0 1 7.777-7.777zm0 0L15.5 7.5m0 0l3 3L22 7l-3-3m-3.5 3.5L19 4" />
        </g>
    </svg>