<svg width="420" height="420" viewBox="0 0 420 420" fill="none" xmlns="http://www.w3.org/2000/svg">
  <defs>
    <linearGradient id="bg" x1="60" y1="40" x2="360" y2="360" gradientUnits="userSpaceOnUse">
      <stop stop-color="#0EA5E9"/>
      <stop offset="1" stop-color="#0F766E"/>
    </linearGradient>
    <linearGradient id="layer" x1="80" y1="110" x2="340" y2="310" gradientUnits="userSpaceOnUse">
      <stop stop-color="#F97316"/>
      <stop offset="1" stop-color="#FACC15"/>
    </linearGradient>
    <filter id="shadow" x="-20%" y="-20%" width="140%" height="140%">
      <feDropShadow dx="0" dy="12" stdDeviation="18" flood-color="#0F172A" flood-opacity="0.25"/>
    </filter>
  </defs>
  <rect x="30" y="30" width="360" height="360" rx="56" fill="url(#bg)" filter="url(#shadow)"/>
  <path d="M110 200c0-12 8-22 20-26l150-48c16-5 32 7 32 24v50c0 12-8 22-20 26l-150 48c-16 5-32-7-32-24v-50Z" fill="#0B1224" opacity=".25"/>
  <path d="M100 190c0-12 8-22 20-26l160-52c16-5 32 7 32 24v62c0 12-8 22-20 26l-160 52c-16 5-32-7-32-24v-62Z" fill="url(#layer)"/>
  <path d="M100 254c0-12 8-22 20-26l160-52c16-5 32 7 32 24v62c0 12-8 22-20 26l-160 52c-16 5-32-7-32-24v-62Z" fill="#0B1224" opacity=".18"/>
  <path d="M130 228c0-9 6-17 14-19l116-38c12-4 24 5 24 17v46c0 9-6 17-14 19l-116 38c-12 4-24-5-24-17v-46Z" fill="#0EA5E9" opacity=".9"/>
  <path d="M176 230c0-10 6-18 14-21l68-22c11-4 22 5 22 17v34c0 10-6 18-14 21l-68 22c-11 4-22-5-22-17v-34Z" fill="#F8FAFC"/>
  <path d="M208 214v66m18-72v66" stroke="#0EA5E9" stroke-width="8" stroke-linecap="round" opacity=".85"/>
  <circle cx="140" cy="188" r="10" fill="#FACC15"/>
  <circle cx="280" cy="228" r="10" fill="#F97316"/>
  <text x="210" y="110" text-anchor="middle" font-family="Inter, 'Segoe UI', sans-serif" font-size="42" font-weight="700" fill="#F8FAFC" opacity=".9">
    SERVICE LAYER
  </text>
</svg>
