<svg width="512" height="512" viewBox="0 0 512 512" xmlns="http://www.w3.org/2000/svg">
        <defs>
            <linearGradient id="g" x1="0%" y1="0%" x2="100%" y2="100%">
                <stop offset="0%" style="stop-color:#64748b;stop-opacity:1" />
                <stop offset="100%" style="stop-color:#334155;stop-opacity:1" />
            </linearGradient>
            <filter id="shadow" x="-20%" y="-20%" width="140%" height="140%">
                <feDropShadow dx="2" dy="2" stdDeviation="2" flood-color="#000000" flood-opacity="0.2"/>
            </filter>
        </defs>
        <circle cx="256" cy="256" r="256" fill="url(#g)" />
        <g transform="translate(106, 106) scale(12.5)" stroke="#FFFFFF" stroke-width="2" fill="none" stroke-linecap="round" stroke-linejoin="round" filter="url(#shadow)">
            <path d="M19 4h-2V3a1 1 0 0 0-1-1H4a1 1 0 0 0-1 1v2H2a1 1 0 0 0-1 1v12a1 1 0 0 0 1 1h16a1 1 0 0 0 1-1V5a1 1 0 0 0-1-1zM4 3h12v1H4V3zm14 15H2V5h1v12a1 1 0 0 0 1 1h12v1zm0-1H4V5h12v12z" />
        </g>
    </svg>