<svg width="1200" height="400" viewBox="0 0 1200 400" xmlns="http://www.w3.org/2000/svg">
        <defs>
            <linearGradient id="bg" x1="0%" y1="0%" x2="100%" y2="0%">
                <stop offset="0%" style="stop-color:#b45309;stop-opacity:1" />
                <stop offset="100%" style="stop-color:#f59e0b;stop-opacity:1" />
            </linearGradient>
            <pattern id="grid" width="40" height="40" patternUnits="userSpaceOnUse">
                <path d="M 40 0 L 0 0 0 40" fill="none" stroke="white" stroke-width="1" stroke-opacity="0.1"/>
            </pattern>
        </defs>
        <rect width="1200" height="400" fill="url(#bg)" />
        <rect width="1200" height="400" fill="url(#grid)" />
        <circle cx="451" cy="54" r="192" fill="white" fill-opacity="0.11" /><circle cx="908" cy="28" r="142" fill="white" fill-opacity="0.09" /><circle cx="660" cy="28" r="163" fill="white" fill-opacity="0.06" /><circle cx="781" cy="42" r="129" fill="white" fill-opacity="0.13" /><circle cx="954" cy="380" r="142" fill="white" fill-opacity="0.08" /><circle cx="894" cy="205" r="113" fill="white" fill-opacity="0.08" /><circle cx="132" cy="16" r="158" fill="white" fill-opacity="0.09" /><circle cx="556" cy="259" r="94" fill="white" fill-opacity="0.13" /><circle cx="0" cy="59" r="85" fill="white" fill-opacity="0.12" /><circle cx="108" cy="200" r="99" fill="white" fill-opacity="0.13" />
        
        <!-- Big decorative icon on right -->
        <g transform="translate(850, -50) scale(20)" stroke="white" stroke-width="1.5" fill="none" stroke-opacity="0.2">
             <path d="M2 12a5 5 0 0 0 5 5 8 8 0 0 1 5 2 8 8 0 0 1 5-2 5 5 0 0 0 5-5V7h-5a8 8 0 0 0-5 2 8 8 0 0 0-5-2H2Z" />
        </g>
        
        <!-- Smaller focused icon on left-center -->
        <g transform="translate(100, 100) scale(8)" stroke="white" stroke-width="2" fill="none" filter="drop-shadow(3px 3px 2px rgba(0,0,0,0.3))">
             <path d="M2 12a5 5 0 0 0 5 5 8 8 0 0 1 5 2 8 8 0 0 1 5-2 5 5 0 0 0 5-5V7h-5a8 8 0 0 0-5 2 8 8 0 0 0-5-2H2Z" />
        </g>
    </svg>